<svg xmlns="http://www.w3.org/2000/svg" xmlns:xlink="http://www.w3.org/1999/xlink" width="3840" zoomAndPan="magnify" viewBox="0 0 2880 1619.99993" height="2160" preserveAspectRatio="xMidYMid meet" version="1.0"><defs><filter x="0%" y="0%" width="100%" height="100%" id="06d667c956"><feColorMatrix values="0 0 0 0 1 0 0 0 0 1 0 0 0 0 1 0 0 0 1 0" color-interpolation-filters="sRGB"/></filter><mask id="a906e15697"><g filter="url(#06d667c956)"><rect x="-288" width="3456" fill="#000000" y="-161.999993" height="1943.999916" fill-opacity="0.23"/></g></mask><clipPath id="6c9ef70aec"><path d="M 402 0 L 539 0 L 539 44 L 402 44 Z M 402 0 " clip-rule="nonzero"/></clipPath><clipPath id="66ce7d7a1a"><path d="M 0 578 L 78 578 L 78 662 L 0 662 Z M 0 578 " clip-rule="nonzero"/></clipPath><clipPath id="f187130790"><path d="M 0 887 L 92 887 L 92 984 L 0 984 Z M 0 887 " clip-rule="nonzero"/></clipPath><clipPath id="5cf0ff6712"><path d="M 1885 0 L 2023 0 L 2023 44 L 1885 44 Z M 1885 0 " clip-rule="nonzero"/></clipPath><clipPath id="f35602b650"><path d="M 1356 0 L 1427 0 L 1427 11 L 1356 11 Z M 1356 0 " clip-rule="nonzero"/></clipPath><clipPath id="ef4d87e51c"><path d="M 2866 348 L 2879.851562 348 L 2879.851562 355 L 2866 355 Z M 2866 348 " clip-rule="nonzero"/></clipPath><clipPath id="822ba71341"><path d="M 2839 0 L 2879.851562 0 L 2879.851562 11 L 2839 11 Z M 2839 0 " clip-rule="nonzero"/></clipPath><clipPath id="e13945b8ed"><path d="M 2839 1424 L 2879.851562 1424 L 2879.851562 1494 L 2839 1494 Z M 2839 1424 " clip-rule="nonzero"/></clipPath><clipPath id="42cc052b05"><path d="M 77 1574 L 149 1574 L 149 1620 L 77 1620 Z M 77 1574 " clip-rule="nonzero"/></clipPath><clipPath id="77ce2f8798"><path d="M 1561 1574 L 1632 1574 L 1632 1620 L 1561 1620 Z M 1561 1574 " clip-rule="nonzero"/></clipPath><clipPath id="46210470e6"><rect x="0" width="2880" y="0" height="1620"/></clipPath></defs><rect x="-288" width="3456" fill="#ffffff" y="-161.999993" height="1943.999916" fill-opacity="1"/><rect x="-288" width="3456" fill="#ffc0cb" y="-161.999993" height="1943.999916" fill-opacity="1"/><g mask="url(#a906e15697)"><g transform="matrix(1, 0, 0, 1, 0, -0.000000000000139648)"><g clip-path="url(#46210470e6)"><path fill="#1d1d1b" d="M 859.800781 436.460938 C 859.800781 474.183594 829.175781 504.804688 791.445312 504.804688 C 829.175781 504.804688 859.800781 535.378906 859.800781 573.164062 C 859.800781 535.378906 890.375 504.804688 928.152344 504.804688 C 890.375 504.804688 859.800781 474.183594 859.800781 436.460938 " fill-opacity="1" fill-rule="nonzero"/><path fill="#1d1d1b" d="M 1235.179688 853.902344 C 1235.179688 876.421875 1216.902344 894.710938 1194.382812 894.710938 C 1216.902344 894.710938 1235.179688 912.960938 1235.179688 935.507812 C 1235.179688 912.960938 1253.425781 894.710938 1275.976562 894.710938 C 1253.425781 894.710938 1235.179688 876.421875 1235.179688 853.902344 " fill-opacity="1" fill-rule="nonzero"/><path fill="#1d1d1b" d="M 961.230469 241.1875 C 961.230469 271.613281 936.53125 296.316406 906.101562 296.316406 C 936.53125 296.316406 961.230469 320.96875 961.230469 351.441406 C 961.230469 320.96875 985.886719 296.316406 1016.351562 296.316406 C 985.886719 296.316406 961.230469 271.613281 961.230469 241.1875 " fill-opacity="1" fill-rule="nonzero"/><path fill="#1d1d1b" d="M 573.277344 504.804688 C 573.277344 530.882812 552.113281 552.039062 526.042969 552.039062 C 552.113281 552.039062 573.277344 573.179688 573.277344 599.273438 C 573.277344 573.179688 594.40625 552.039062 620.511719 552.039062 C 594.40625 552.039062 573.277344 530.882812 573.277344 504.804688 " fill-opacity="1" fill-rule="nonzero"/><path fill="#1d1d1b" d="M 263.9375 261.539062 C 263.9375 293.777344 237.78125 319.929688 205.542969 319.929688 C 237.78125 319.929688 263.9375 346.054688 263.9375 378.320312 C 263.9375 346.054688 290.0625 319.929688 322.335938 319.929688 C 290.0625 319.929688 263.9375 293.777344 263.9375 261.539062 " fill-opacity="1" fill-rule="nonzero"/><g clip-path="url(#6c9ef70aec)"><path fill="#1d1d1b" d="M 470.554688 -92.824219 C 470.554688 -55.097656 439.9375 -24.480469 402.207031 -24.480469 C 439.9375 -24.480469 470.554688 6.09375 470.554688 43.882812 C 470.554688 6.09375 501.136719 -24.480469 538.914062 -24.480469 C 501.136719 -24.480469 470.554688 -55.097656 470.554688 -92.824219 " fill-opacity="1" fill-rule="nonzero"/></g><path fill="#1d1d1b" d="M 322.335938 758.589844 C 322.335938 785.347656 300.621094 807.050781 273.867188 807.050781 C 300.621094 807.050781 322.335938 828.742188 322.335938 855.519531 C 322.335938 828.742188 344.019531 807.050781 370.800781 807.050781 C 344.019531 807.050781 322.335938 785.347656 322.335938 758.589844 " fill-opacity="1" fill-rule="nonzero"/><path fill="#1d1d1b" d="M 1088.632812 332.09375 C 1088.632812 354.972656 1070.058594 373.546875 1047.179688 373.546875 C 1070.058594 373.546875 1088.632812 392.089844 1088.632812 414.996094 C 1088.632812 392.089844 1107.167969 373.546875 1130.082031 373.546875 C 1107.167969 373.546875 1088.632812 354.972656 1088.632812 332.09375 " fill-opacity="1" fill-rule="nonzero"/><path fill="#1d1d1b" d="M 824.515625 807.050781 C 824.515625 826.535156 808.714844 842.347656 789.238281 842.347656 C 808.714844 842.347656 824.515625 858.117188 824.515625 877.621094 C 824.515625 858.117188 840.300781 842.347656 859.800781 842.347656 C 840.300781 842.347656 824.515625 826.535156 824.515625 807.050781 " fill-opacity="1" fill-rule="nonzero"/><path fill="#1d1d1b" d="M 113.144531 90.746094 C 113.144531 110.222656 97.335938 126.019531 77.859375 126.019531 C 97.335938 126.019531 113.144531 141.804688 113.144531 161.316406 C 113.144531 141.804688 128.921875 126.019531 148.421875 126.019531 C 128.921875 126.019531 113.144531 110.222656 113.144531 90.746094 " fill-opacity="1" fill-rule="nonzero"/><path fill="#1d1d1b" d="M 624.765625 49.296875 C 624.765625 72.175781 606.191406 90.746094 583.3125 90.746094 C 606.191406 90.746094 624.765625 109.289062 624.765625 132.191406 C 624.765625 109.289062 643.308594 90.746094 666.214844 90.746094 C 643.308594 90.746094 624.765625 72.175781 624.765625 49.296875 " fill-opacity="1" fill-rule="nonzero"/><g clip-path="url(#66ce7d7a1a)"><path fill="#1d1d1b" d="M 36.40625 578.953125 C 36.40625 601.824219 17.839844 620.398438 -5.039062 620.398438 C 17.839844 620.398438 36.40625 638.941406 36.40625 661.847656 C 36.40625 638.941406 54.949219 620.398438 77.859375 620.398438 C 54.949219 620.398438 36.40625 601.824219 36.40625 578.953125 " fill-opacity="1" fill-rule="nonzero"/></g><g clip-path="url(#f187130790)"><path fill="#1d1d1b" d="M 42.578125 887.027344 C 42.578125 913.792969 20.863281 935.507812 -5.890625 935.507812 C 20.863281 935.507812 42.578125 957.1875 42.578125 983.976562 C 42.578125 957.1875 64.257812 935.507812 91.042969 935.507812 C 64.257812 935.507812 42.578125 913.792969 42.578125 887.027344 " fill-opacity="1" fill-rule="nonzero"/></g><path fill="#1d1d1b" d="M 1194.375 49.296875 C 1194.375 72.175781 1175.808594 90.746094 1152.929688 90.746094 C 1175.808594 90.746094 1194.375 109.289062 1194.375 132.191406 C 1194.375 109.289062 1212.921875 90.746094 1235.828125 90.746094 C 1212.921875 90.746094 1194.375 72.175781 1194.375 49.296875 " fill-opacity="1" fill-rule="nonzero"/><path fill="#1d1d1b" d="M 1313.449219 599.273438 C 1313.449219 622.164062 1294.882812 640.726562 1272.003906 640.726562 C 1294.882812 640.726562 1313.449219 659.269531 1313.449219 682.171875 C 1313.449219 659.269531 1331.996094 640.726562 1354.902344 640.726562 C 1331.996094 640.726562 1313.449219 622.164062 1313.449219 599.273438 " fill-opacity="1" fill-rule="nonzero"/><path fill="#1d1d1b" d="M 1417.34375 316.667969 C 1417.34375 335.867188 1401.765625 351.441406 1382.574219 351.441406 C 1401.765625 351.441406 1417.34375 366.984375 1417.34375 386.210938 C 1417.34375 366.984375 1432.90625 351.441406 1452.117188 351.441406 C 1432.90625 351.441406 1417.34375 335.867188 1417.34375 316.667969 " fill-opacity="1" fill-rule="nonzero"/><path fill="#1d1d1b" d="M 701.496094 900.214844 C 701.496094 919.691406 685.691406 935.507812 666.214844 935.507812 C 685.691406 935.507812 701.496094 951.28125 701.496094 970.785156 C 701.496094 951.28125 717.28125 935.507812 736.78125 935.507812 C 717.28125 935.507812 701.496094 919.691406 701.496094 900.214844 " fill-opacity="1" fill-rule="nonzero"/><path fill="#1d1d1b" d="M 299.976562 594.289062 C 299.976562 608.707031 288.277344 620.398438 273.867188 620.398438 C 288.277344 620.398438 299.976562 632.074219 299.976562 646.507812 C 299.976562 632.074219 311.652344 620.398438 326.082031 620.398438 C 311.652344 620.398438 299.976562 608.707031 299.976562 594.289062 " fill-opacity="1" fill-rule="nonzero"/><path fill="#1d1d1b" d="M 1016.351562 970.785156 C 1016.351562 985.191406 1004.65625 996.898438 990.246094 996.898438 C 1004.65625 996.898438 1016.351562 1008.570312 1016.351562 1023.003906 C 1016.351562 1008.570312 1028.035156 996.898438 1042.457031 996.898438 C 1028.035156 996.898438 1016.351562 985.191406 1016.351562 970.785156 " fill-opacity="1" fill-rule="nonzero"/><path fill="#1d1d1b" d="M 384.972656 996.898438 C 384.972656 1011.300781 373.269531 1023.003906 358.859375 1023.003906 C 373.269531 1023.003906 384.972656 1034.683594 384.972656 1049.097656 C 384.972656 1034.683594 396.648438 1023.003906 411.078125 1023.003906 C 396.648438 1023.003906 384.972656 1011.300781 384.972656 996.898438 " fill-opacity="1" fill-rule="nonzero"/><path fill="#1d1d1b" d="M 2343.300781 436.460938 C 2343.300781 474.183594 2312.679688 504.804688 2274.9375 504.804688 C 2312.679688 504.804688 2343.300781 535.378906 2343.300781 573.164062 C 2343.300781 535.378906 2373.875 504.804688 2411.65625 504.804688 C 2373.875 504.804688 2343.300781 474.183594 2343.300781 436.460938 " fill-opacity="1" fill-rule="nonzero"/><path fill="#1d1d1b" d="M 2718.671875 853.902344 C 2718.671875 876.421875 2700.394531 894.710938 2677.875 894.710938 C 2700.394531 894.710938 2718.671875 912.960938 2718.671875 935.507812 C 2718.671875 912.960938 2736.933594 894.710938 2759.46875 894.710938 C 2736.933594 894.710938 2718.671875 876.421875 2718.671875 853.902344 " fill-opacity="1" fill-rule="nonzero"/><path fill="#1d1d1b" d="M 2444.730469 241.1875 C 2444.730469 271.613281 2420.027344 296.316406 2389.601562 296.316406 C 2420.027344 296.316406 2444.730469 320.96875 2444.730469 351.441406 C 2444.730469 320.96875 2469.382812 296.316406 2499.855469 296.316406 C 2469.382812 296.316406 2444.730469 271.613281 2444.730469 241.1875 " fill-opacity="1" fill-rule="nonzero"/><path fill="#1d1d1b" d="M 2056.777344 504.804688 C 2056.777344 530.882812 2035.625 552.039062 2009.542969 552.039062 C 2035.625 552.039062 2056.777344 573.179688 2056.777344 599.273438 C 2056.777344 573.179688 2077.90625 552.039062 2104.011719 552.039062 C 2077.90625 552.039062 2056.777344 530.882812 2056.777344 504.804688 " fill-opacity="1" fill-rule="nonzero"/><path fill="#1d1d1b" d="M 1747.4375 261.539062 C 1747.4375 293.777344 1721.285156 319.929688 1689.046875 319.929688 C 1721.285156 319.929688 1747.4375 346.054688 1747.4375 378.320312 C 1747.4375 346.054688 1773.5625 319.929688 1805.828125 319.929688 C 1773.5625 319.929688 1747.4375 293.777344 1747.4375 261.539062 " fill-opacity="1" fill-rule="nonzero"/><g clip-path="url(#5cf0ff6712)"><path fill="#1d1d1b" d="M 1954.0625 -92.824219 C 1954.0625 -55.097656 1923.441406 -24.480469 1885.699219 -24.480469 C 1923.441406 -24.480469 1954.0625 6.09375 1954.0625 43.882812 C 1954.0625 6.09375 1984.636719 -24.480469 2022.417969 -24.480469 C 1984.636719 -24.480469 1954.0625 -55.097656 1954.0625 -92.824219 " fill-opacity="1" fill-rule="nonzero"/></g><g clip-path="url(#f35602b650)"><path fill="#1d1d1b" d="M 1391.203125 -59.382812 C 1391.203125 -40.113281 1375.566406 -24.480469 1356.296875 -24.480469 C 1375.566406 -24.480469 1391.203125 -8.855469 1391.203125 10.429688 C 1391.203125 -8.855469 1406.8125 -24.480469 1426.109375 -24.480469 C 1406.8125 -24.480469 1391.203125 -40.113281 1391.203125 -59.382812 " fill-opacity="1" fill-rule="nonzero"/></g><path fill="#1d1d1b" d="M 1805.828125 758.589844 C 1805.828125 785.347656 1784.125 807.050781 1757.363281 807.050781 C 1784.125 807.050781 1805.828125 828.742188 1805.828125 855.519531 C 1805.828125 828.742188 1827.519531 807.050781 1854.296875 807.050781 C 1827.519531 807.050781 1805.828125 785.347656 1805.828125 758.589844 " fill-opacity="1" fill-rule="nonzero"/><path fill="#1d1d1b" d="M 2572.132812 332.09375 C 2572.132812 354.972656 2553.558594 373.546875 2530.679688 373.546875 C 2553.558594 373.546875 2572.132812 392.089844 2572.132812 414.996094 C 2572.132812 392.089844 2590.675781 373.546875 2613.582031 373.546875 C 2590.675781 373.546875 2572.132812 354.972656 2572.132812 332.09375 " fill-opacity="1" fill-rule="nonzero"/><path fill="#1d1d1b" d="M 2308.023438 807.050781 C 2308.023438 826.535156 2292.207031 842.347656 2272.730469 842.347656 C 2292.207031 842.347656 2308.023438 858.117188 2308.023438 877.621094 C 2308.023438 858.117188 2323.808594 842.347656 2343.300781 842.347656 C 2323.808594 842.347656 2308.023438 826.535156 2308.023438 807.050781 " fill-opacity="1" fill-rule="nonzero"/><path fill="#1d1d1b" d="M 1596.644531 90.746094 C 1596.644531 110.222656 1580.839844 126.019531 1561.363281 126.019531 C 1580.839844 126.019531 1596.644531 141.804688 1596.644531 161.316406 C 1596.644531 141.804688 1612.421875 126.019531 1631.917969 126.019531 C 1612.421875 126.019531 1596.644531 110.222656 1596.644531 90.746094 " fill-opacity="1" fill-rule="nonzero"/><path fill="#1d1d1b" d="M 2108.269531 49.296875 C 2108.269531 72.175781 2089.699219 90.746094 2066.820312 90.746094 C 2089.699219 90.746094 2108.269531 109.289062 2108.269531 132.191406 C 2108.269531 109.289062 2126.816406 90.746094 2149.714844 90.746094 C 2126.816406 90.746094 2108.269531 72.175781 2108.269531 49.296875 " fill-opacity="1" fill-rule="nonzero"/><path fill="#1d1d1b" d="M 1519.914062 578.953125 C 1519.914062 601.824219 1501.339844 620.398438 1478.46875 620.398438 C 1501.339844 620.398438 1519.914062 638.941406 1519.914062 661.847656 C 1519.914062 638.941406 1538.457031 620.398438 1561.363281 620.398438 C 1538.457031 620.398438 1519.914062 601.824219 1519.914062 578.953125 " fill-opacity="1" fill-rule="nonzero"/><path fill="#1d1d1b" d="M 1526.074219 887.027344 C 1526.074219 913.792969 1504.363281 935.507812 1477.605469 935.507812 C 1504.363281 935.507812 1526.074219 957.1875 1526.074219 983.976562 C 1526.074219 957.1875 1547.757812 935.507812 1574.535156 935.507812 C 1547.757812 935.507812 1526.074219 913.792969 1526.074219 887.027344 " fill-opacity="1" fill-rule="nonzero"/><path fill="#1d1d1b" d="M 2677.875 49.296875 C 2677.875 72.175781 2659.316406 90.746094 2636.425781 90.746094 C 2659.316406 90.746094 2677.875 109.289062 2677.875 132.191406 C 2677.875 109.289062 2696.421875 90.746094 2719.320312 90.746094 C 2696.421875 90.746094 2677.875 72.175781 2677.875 49.296875 " fill-opacity="1" fill-rule="nonzero"/><path fill="#1d1d1b" d="M 2796.957031 599.273438 C 2796.957031 622.164062 2778.382812 640.726562 2755.503906 640.726562 C 2778.382812 640.726562 2796.957031 659.269531 2796.957031 682.171875 C 2796.957031 659.269531 2815.5 640.726562 2838.402344 640.726562 C 2815.5 640.726562 2796.957031 622.164062 2796.957031 599.273438 " fill-opacity="1" fill-rule="nonzero"/><g clip-path="url(#ef4d87e51c)"><path fill="#1d1d1b" d="M 2866.074219 351.441406 C 2870.96875 351.441406 2875.621094 352.453125 2879.851562 354.277344 L 2879.851562 348.59375 C 2875.621094 350.417969 2870.96875 351.441406 2866.074219 351.441406 " fill-opacity="1" fill-rule="nonzero"/></g><path fill="#1d1d1b" d="M 2184.996094 900.214844 C 2184.996094 919.691406 2169.199219 935.507812 2149.714844 935.507812 C 2169.199219 935.507812 2184.996094 951.28125 2184.996094 970.785156 C 2184.996094 951.28125 2200.78125 935.507812 2220.273438 935.507812 C 2200.78125 935.507812 2184.996094 919.691406 2184.996094 900.214844 " fill-opacity="1" fill-rule="nonzero"/><path fill="#1d1d1b" d="M 1783.472656 594.289062 C 1783.472656 608.707031 1771.78125 620.398438 1757.363281 620.398438 C 1771.78125 620.398438 1783.472656 632.074219 1783.472656 646.507812 C 1783.472656 632.074219 1795.148438 620.398438 1809.582031 620.398438 C 1795.148438 620.398438 1783.472656 608.707031 1783.472656 594.289062 " fill-opacity="1" fill-rule="nonzero"/><path fill="#1d1d1b" d="M 2499.855469 970.785156 C 2499.855469 985.191406 2488.152344 996.898438 2473.746094 996.898438 C 2488.152344 996.898438 2499.855469 1008.570312 2499.855469 1023.003906 C 2499.855469 1008.570312 2511.527344 996.898438 2525.960938 996.898438 C 2511.527344 996.898438 2499.855469 985.191406 2499.855469 970.785156 " fill-opacity="1" fill-rule="nonzero"/><path fill="#1d1d1b" d="M 1868.460938 996.898438 C 1868.460938 1011.300781 1856.769531 1023.003906 1842.363281 1023.003906 C 1856.769531 1023.003906 1868.460938 1034.683594 1868.460938 1049.097656 C 1868.460938 1034.683594 1880.152344 1023.003906 1894.570312 1023.003906 C 1880.152344 1023.003906 1868.460938 1011.300781 1868.460938 996.898438 " fill-opacity="1" fill-rule="nonzero"/><path fill="#1d1d1b" d="M 1147.027344 1080.222656 C 1147.027344 1112.460938 1120.863281 1138.613281 1088.632812 1138.613281 C 1120.863281 1138.613281 1147.027344 1164.738281 1147.027344 1197.019531 C 1147.027344 1164.738281 1173.144531 1138.613281 1205.421875 1138.613281 C 1173.144531 1138.613281 1147.027344 1112.460938 1147.027344 1080.222656 " fill-opacity="1" fill-rule="nonzero"/><path fill="#1d1d1b" d="M 854.679688 1332.304688 C 854.679688 1353.378906 837.570312 1370.484375 816.488281 1370.484375 C 837.570312 1370.484375 854.679688 1387.574219 854.679688 1408.6875 C 854.679688 1387.574219 871.769531 1370.484375 892.871094 1370.484375 C 871.769531 1370.484375 854.679688 1353.378906 854.679688 1332.304688 " fill-opacity="1" fill-rule="nonzero"/><path fill="#1d1d1b" d="M 470.554688 1390.675781 C 470.554688 1428.398438 439.9375 1459.019531 402.207031 1459.019531 C 439.9375 1459.019531 470.554688 1489.59375 470.554688 1527.382812 C 470.554688 1489.59375 501.136719 1459.019531 538.914062 1459.019531 C 501.136719 1459.019531 470.554688 1428.398438 470.554688 1390.675781 " fill-opacity="1" fill-rule="nonzero"/><path fill="#1d1d1b" d="M 538.914062 1104.253906 C 538.914062 1123.214844 523.515625 1138.613281 504.550781 1138.613281 C 523.515625 1138.613281 538.914062 1154 538.914062 1172.988281 C 538.914062 1154 554.289062 1138.613281 573.277344 1138.613281 C 554.289062 1138.613281 538.914062 1123.214844 538.914062 1104.253906 " fill-opacity="1" fill-rule="nonzero"/><g clip-path="url(#822ba71341)"><path fill="#1d1d1b" d="M 2874.707031 -59.382812 C 2874.707031 -40.113281 2859.066406 -24.480469 2839.796875 -24.480469 C 2859.066406 -24.480469 2874.707031 -8.855469 2874.707031 10.429688 C 2874.707031 3.738281 2876.589844 -2.523438 2879.851562 -7.832031 L 2879.851562 -41.121094 C 2876.589844 -46.449219 2874.707031 -52.695312 2874.707031 -59.382812 " fill-opacity="1" fill-rule="nonzero"/></g><g clip-path="url(#e13945b8ed)"><path fill="#1d1d1b" d="M 2874.707031 1424.117188 C 2874.707031 1443.386719 2859.066406 1459.019531 2839.796875 1459.019531 C 2859.066406 1459.019531 2874.707031 1474.644531 2874.707031 1493.929688 C 2874.707031 1487.234375 2876.589844 1480.976562 2879.851562 1475.667969 L 2879.851562 1442.378906 C 2876.589844 1437.0625 2874.707031 1430.804688 2874.707031 1424.117188 " fill-opacity="1" fill-rule="nonzero"/></g><path fill="#1d1d1b" d="M 77.859375 1103.339844 C 77.859375 1122.816406 62.050781 1138.613281 42.578125 1138.613281 C 62.050781 1138.613281 77.859375 1154.398438 77.859375 1173.910156 C 77.859375 1154.398438 93.644531 1138.613281 113.144531 1138.613281 C 93.644531 1138.613281 77.859375 1122.816406 77.859375 1103.339844 " fill-opacity="1" fill-rule="nonzero"/><g clip-path="url(#42cc052b05)"><path fill="#1d1d1b" d="M 113.144531 1574.246094 C 113.144531 1593.722656 97.335938 1609.519531 77.859375 1609.519531 C 97.335938 1609.519531 113.144531 1625.304688 113.144531 1644.816406 C 113.144531 1625.304688 128.921875 1609.519531 148.421875 1609.519531 C 128.921875 1609.519531 113.144531 1593.722656 113.144531 1574.246094 " fill-opacity="1" fill-rule="nonzero"/></g><path fill="#1d1d1b" d="M 624.765625 1532.796875 C 624.765625 1555.675781 606.191406 1574.246094 583.3125 1574.246094 C 606.191406 1574.246094 624.765625 1592.789062 624.765625 1615.691406 C 624.765625 1592.789062 643.308594 1574.246094 666.214844 1574.246094 C 643.308594 1574.246094 624.765625 1555.675781 624.765625 1532.796875 " fill-opacity="1" fill-rule="nonzero"/><path fill="#1d1d1b" d="M 1194.375 1532.796875 C 1194.375 1555.675781 1175.808594 1574.246094 1152.929688 1574.246094 C 1175.808594 1574.246094 1194.375 1592.789062 1194.375 1615.691406 C 1194.375 1592.789062 1212.921875 1574.246094 1235.828125 1574.246094 C 1212.921875 1574.246094 1194.375 1555.675781 1194.375 1532.796875 " fill-opacity="1" fill-rule="nonzero"/><path fill="#1d1d1b" d="M 231.164062 1306.683594 C 231.164062 1320.816406 219.6875 1332.304688 205.542969 1332.304688 C 219.6875 1332.304688 231.164062 1343.753906 231.164062 1357.921875 C 231.164062 1343.753906 242.625 1332.304688 256.789062 1332.304688 C 242.625 1332.304688 231.164062 1320.816406 231.164062 1306.683594 " fill-opacity="1" fill-rule="nonzero"/><path fill="#1d1d1b" d="M 2630.519531 1080.222656 C 2630.519531 1112.460938 2604.367188 1138.613281 2572.132812 1138.613281 C 2604.367188 1138.613281 2630.519531 1164.738281 2630.519531 1197.019531 C 2630.519531 1164.738281 2656.644531 1138.613281 2688.925781 1138.613281 C 2656.644531 1138.613281 2630.519531 1112.460938 2630.519531 1080.222656 " fill-opacity="1" fill-rule="nonzero"/><path fill="#1d1d1b" d="M 2338.183594 1332.304688 C 2338.183594 1353.378906 2321.058594 1370.484375 2299.984375 1370.484375 C 2321.058594 1370.484375 2338.183594 1387.574219 2338.183594 1408.6875 C 2338.183594 1387.574219 2355.273438 1370.484375 2376.367188 1370.484375 C 2355.273438 1370.484375 2338.183594 1353.378906 2338.183594 1332.304688 " fill-opacity="1" fill-rule="nonzero"/><path fill="#1d1d1b" d="M 1954.0625 1390.675781 C 1954.0625 1428.398438 1923.441406 1459.019531 1885.699219 1459.019531 C 1923.441406 1459.019531 1954.0625 1489.59375 1954.0625 1527.382812 C 1954.0625 1489.59375 1984.636719 1459.019531 2022.417969 1459.019531 C 1984.636719 1459.019531 1954.0625 1428.398438 1954.0625 1390.675781 " fill-opacity="1" fill-rule="nonzero"/><path fill="#1d1d1b" d="M 2022.417969 1104.253906 C 2022.417969 1123.214844 2007.023438 1138.613281 1988.050781 1138.613281 C 2007.023438 1138.613281 2022.417969 1154 2022.417969 1172.988281 C 2022.417969 1154 2037.785156 1138.613281 2056.777344 1138.613281 C 2037.785156 1138.613281 2022.417969 1123.214844 2022.417969 1104.253906 " fill-opacity="1" fill-rule="nonzero"/><path fill="#1d1d1b" d="M 1391.203125 1424.117188 C 1391.203125 1443.386719 1375.566406 1459.019531 1356.296875 1459.019531 C 1375.566406 1459.019531 1391.203125 1474.644531 1391.203125 1493.929688 C 1391.203125 1474.644531 1406.8125 1459.019531 1426.109375 1459.019531 C 1406.8125 1459.019531 1391.203125 1443.386719 1391.203125 1424.117188 " fill-opacity="1" fill-rule="nonzero"/><path fill="#1d1d1b" d="M 1561.363281 1103.339844 C 1561.363281 1122.816406 1545.550781 1138.613281 1526.074219 1138.613281 C 1545.550781 1138.613281 1561.363281 1154.398438 1561.363281 1173.910156 C 1561.363281 1154.398438 1577.148438 1138.613281 1596.644531 1138.613281 C 1577.148438 1138.613281 1561.363281 1122.816406 1561.363281 1103.339844 " fill-opacity="1" fill-rule="nonzero"/><g clip-path="url(#77ce2f8798)"><path fill="#1d1d1b" d="M 1596.644531 1574.246094 C 1596.644531 1593.722656 1580.839844 1609.519531 1561.363281 1609.519531 C 1580.839844 1609.519531 1596.644531 1625.304688 1596.644531 1644.816406 C 1596.644531 1625.304688 1612.421875 1609.519531 1631.917969 1609.519531 C 1612.421875 1609.519531 1596.644531 1593.722656 1596.644531 1574.246094 " fill-opacity="1" fill-rule="nonzero"/></g><path fill="#1d1d1b" d="M 2108.269531 1532.796875 C 2108.269531 1555.675781 2089.699219 1574.246094 2066.820312 1574.246094 C 2089.699219 1574.246094 2108.269531 1592.789062 2108.269531 1615.691406 C 2108.269531 1592.789062 2126.816406 1574.246094 2149.714844 1574.246094 C 2126.816406 1574.246094 2108.269531 1555.675781 2108.269531 1532.796875 " fill-opacity="1" fill-rule="nonzero"/><path fill="#1d1d1b" d="M 2677.875 1532.796875 C 2677.875 1555.675781 2659.316406 1574.246094 2636.425781 1574.246094 C 2659.316406 1574.246094 2677.875 1592.789062 2677.875 1615.691406 C 2677.875 1592.789062 2696.421875 1574.246094 2719.320312 1574.246094 C 2696.421875 1574.246094 2677.875 1555.675781 2677.875 1532.796875 " fill-opacity="1" fill-rule="nonzero"/><path fill="#1d1d1b" d="M 1714.667969 1306.683594 C 1714.667969 1320.816406 1703.183594 1332.304688 1689.046875 1332.304688 C 1703.183594 1332.304688 1714.667969 1343.753906 1714.667969 1357.921875 C 1714.667969 1343.753906 1726.117188 1332.304688 1740.289062 1332.304688 C 1726.117188 1332.304688 1714.667969 1320.816406 1714.667969 1306.683594 " fill-opacity="1" fill-rule="nonzero"/></g></g></g></svg>