<svg xmlns="http://www.w3.org/2000/svg" xmlns:xlink="http://www.w3.org/1999/xlink" width="2000" zoomAndPan="magnify" viewBox="0 0 1500 1499.999933" height="2000" preserveAspectRatio="xMidYMid meet" version="1.0"><defs><clipPath id="a36ff9a2b7"><path d="M 54.945312 379 L 600 379 L 600 1230 L 54.945312 1230 Z M 54.945312 379 " clip-rule="nonzero"/></clipPath><clipPath id="925a0edffc"><path d="M 54.945312 379 L 361 379 L 361 1165 L 54.945312 1165 Z M 54.945312 379 " clip-rule="nonzero"/></clipPath><clipPath id="c1fecf63c0"><path d="M 54.945312 1003 L 242 1003 L 242 1230 L 54.945312 1230 Z M 54.945312 1003 " clip-rule="nonzero"/></clipPath><clipPath id="08dfd306b2"><path d="M 1227 909.464844 L 1444.65625 909.464844 L 1444.65625 1259 L 1227 1259 Z M 1227 909.464844 " clip-rule="nonzero"/></clipPath><clipPath id="b3f77aaa5b"><path d="M 603.570312 1320 L 1095.886719 1320 L 1095.886719 1345.574219 L 603.570312 1345.574219 Z M 603.570312 1320 " clip-rule="nonzero"/></clipPath><clipPath id="500edea594"><path d="M 213.214844 1092.070312 L 632 1092.070312 L 632 1345.574219 L 213.214844 1345.574219 Z M 213.214844 1092.070312 " clip-rule="nonzero"/></clipPath></defs><path fill="#6699ff" d="M 1086.292969 580.394531 C 1086.292969 607.578125 1064.25 629.613281 1037.066406 629.613281 C 1009.878906 629.613281 987.84375 607.578125 987.84375 580.394531 C 987.84375 553.210938 1009.878906 531.175781 1037.066406 531.175781 C 1064.25 531.175781 1086.292969 553.210938 1086.292969 580.394531 " fill-opacity="1" fill-rule="nonzero"/><path fill="#2d2745" d="M 1137.925781 538.234375 C 1162.246094 596.378906 1181.550781 657.769531 1189.609375 720.441406 C 1192.722656 744.648438 1194.234375 769.246094 1192.308594 793.609375 C 1190.925781 811.21875 1187.539062 829.960938 1179.617188 845.292969 C 1176.109375 852.082031 1172.769531 856.925781 1167.316406 861.925781 C 1164.863281 864.175781 1163.5625 865.167969 1160.292969 867.058594 C 1158.984375 867.816406 1157.632812 868.492188 1156.265625 869.121094 C 1155.144531 869.628906 1155.976562 869.246094 1156.214844 869.148438 C 1155.816406 869.3125 1155.414062 869.46875 1155.007812 869.617188 C 1154.285156 869.878906 1153.554688 870.140625 1152.820312 870.371094 C 1151.417969 870.808594 1150.003906 871.175781 1148.570312 871.476562 C 1147.808594 871.636719 1147.042969 871.769531 1146.273438 871.898438 C 1146.007812 871.941406 1145.074219 872.058594 1146.355469 871.898438 C 1145.925781 871.953125 1145.492188 872.003906 1145.058594 872.042969 C 1141.921875 872.296875 1138.796875 872.347656 1135.660156 872.09375 C 1134.921875 872.035156 1134.183594 871.957031 1133.445312 871.875 C 1133.214844 871.847656 1132.242188 871.703125 1133.40625 871.871094 C 1133.027344 871.816406 1132.652344 871.765625 1132.28125 871.699219 C 1130.5625 871.394531 1128.855469 871.066406 1127.160156 870.660156 C 1123.78125 869.839844 1120.457031 868.785156 1117.207031 867.554688 C 1110.679688 865.089844 1103.152344 861.0625 1096.554688 856.882812 C 1089.078125 852.144531 1082.007812 846.804688 1075.265625 841.070312 C 1058.351562 826.671875 1043.269531 810.160156 1029.382812 792.859375 C 993.96875 748.722656 965.808594 698.617188 942.492188 647.195312 C 915.980469 588.75 895.300781 526.90625 884.480469 463.558594 C 880.15625 438.261719 877.515625 412.542969 877.972656 386.847656 C 878.320312 367.285156 880.378906 347.367188 887.050781 328.855469 C 889.515625 322.007812 892.933594 315.113281 897.527344 308.882812 C 900.761719 304.515625 905.785156 299.851562 910.769531 296.964844 C 912.152344 296.171875 913.585938 295.445312 915.054688 294.800781 C 916.035156 294.355469 913.777344 295.289062 915.320312 294.683594 C 915.644531 294.5625 915.964844 294.441406 916.285156 294.320312 C 917.015625 294.0625 917.746094 293.808594 918.484375 293.582031 C 919.882812 293.15625 921.308594 292.789062 922.738281 292.503906 C 923.414062 292.367188 924.097656 292.242188 924.785156 292.128906 C 925.957031 291.9375 924.929688 292.105469 924.703125 292.136719 C 925.21875 292.070312 925.742188 292.015625 926.269531 291.960938 C 933.140625 291.335938 937.949219 291.9375 943.902344 293.375 C 959.132812 297.050781 972.753906 305.230469 985.664062 314.847656 C 1002.316406 327.25 1017.070312 342.289062 1030.636719 357.9375 C 1066.589844 399.378906 1095.125 447.320312 1119.039062 496.535156 C 1125.707031 510.257812 1132.015625 524.167969 1137.925781 538.234375 C 1139.214844 541.292969 1141.992188 543.484375 1145.484375 542.527344 C 1148.359375 541.738281 1151.0625 538.046875 1149.765625 534.972656 C 1126.339844 479.199219 1097.710938 425.101562 1061.332031 376.628906 C 1046.890625 357.394531 1031.289062 338.921875 1013.683594 322.492188 C 999.804688 309.539062 984.492188 297.378906 967.335938 289.046875 C 954.21875 282.671875 939.433594 278.105469 924.703125 279.847656 C 910.222656 281.566406 897.597656 289 888.632812 300.457031 C 877.492188 314.679688 871.929688 332.546875 868.957031 350.144531 C 865.003906 373.417969 864.96875 397.210938 866.789062 420.699219 C 871.695312 483.886719 888.96875 546.132812 911.660156 605.097656 C 934.09375 663.414062 962.34375 720.023438 998.121094 771.347656 C 1012.632812 792.160156 1028.414062 812.230469 1046.089844 830.457031 C 1060.148438 844.941406 1075.570312 858.554688 1092.871094 869.050781 C 1118.183594 884.402344 1151.226562 892.792969 1175.570312 871 C 1187.851562 860.003906 1194.84375 843.929688 1199.007812 828.296875 C 1204.707031 806.914062 1205.898438 784.328125 1205.285156 762.296875 C 1203.582031 701.589844 1188.519531 641.132812 1168.609375 584.039062 C 1162.839844 567.488281 1156.53125 551.140625 1149.765625 534.972656 C 1148.488281 531.914062 1145.703125 529.71875 1142.21875 530.679688 C 1139.335938 531.472656 1136.640625 535.152344 1137.925781 538.234375 " fill-opacity="1" fill-rule="nonzero"/><path fill="#2d2745" d="M 1116.476562 658.421875 C 1074.902344 702.261719 1028.871094 742.652344 977.585938 774.804688 C 957.628906 787.320312 936.753906 798.765625 914.796875 807.355469 C 897.8125 814 879.636719 819.410156 861.871094 820.175781 C 854.164062 820.503906 847.972656 820.128906 841.207031 818.476562 C 839.730469 818.113281 838.269531 817.699219 836.832031 817.222656 C 836.03125 816.960938 835.246094 816.675781 834.464844 816.386719 C 834.121094 816.257812 833.777344 816.121094 833.4375 815.984375 C 832.773438 815.71875 834.1875 816.332031 833.140625 815.851562 C 830.191406 814.507812 827.425781 812.90625 824.777344 811.039062 C 824.484375 810.835938 824.207031 810.621094 823.925781 810.40625 C 824.113281 810.554688 824.808594 811.128906 823.914062 810.378906 C 823.378906 809.925781 822.828125 809.46875 822.304688 808.992188 C 821.109375 807.914062 819.972656 806.773438 818.902344 805.570312 C 818.421875 805.035156 817.96875 804.488281 817.519531 803.933594 C 816.421875 802.601562 817.945312 804.53125 817.320312 803.6875 C 817.105469 803.402344 816.894531 803.113281 816.6875 802.816406 C 815.769531 801.46875 814.882812 800.105469 814.082031 798.679688 C 813.316406 797.3125 812.621094 795.910156 811.976562 794.480469 C 811.890625 794.296875 811.519531 793.398438 811.929688 794.394531 C 811.789062 794.046875 811.644531 793.695312 811.515625 793.34375 C 811.183594 792.445312 810.847656 791.550781 810.550781 790.644531 C 809.457031 787.324219 808.65625 783.914062 808.089844 780.460938 C 807.691406 778.007812 807.316406 773.757812 807.226562 770.160156 C 807.125 766.175781 807.257812 762.183594 807.570312 758.203125 C 808.269531 749.351562 809.953125 740.550781 812.195312 731.695312 C 817.746094 709.78125 826.480469 688.753906 836.585938 668.574219 C 863.019531 615.765625 898.671875 567.574219 937.957031 523.671875 C 979.320312 477.445312 1025.558594 434.835938 1076.984375 399.988281 C 1097.691406 385.949219 1119.328125 373.113281 1142.101562 362.699219 C 1159.941406 354.542969 1178.757812 347.847656 1198.207031 344.886719 C 1204.949219 343.859375 1213.394531 343.433594 1220.84375 344.070312 C 1224.046875 344.339844 1226.0625 344.628906 1229.851562 345.558594 C 1231.414062 345.9375 1232.964844 346.386719 1234.496094 346.894531 C 1235.285156 347.164062 1236.070312 347.449219 1236.855469 347.738281 C 1238.230469 348.257812 1237.089844 347.792969 1238.167969 348.292969 C 1241.023438 349.621094 1243.710938 351.175781 1246.28125 352.992188 C 1246.5625 353.195312 1246.851562 353.410156 1247.132812 353.621094 C 1246.226562 352.929688 1246.96875 353.507812 1247.144531 353.648438 C 1247.75 354.160156 1248.359375 354.679688 1248.945312 355.21875 C 1250.140625 356.296875 1251.265625 357.453125 1252.332031 358.660156 C 1252.800781 359.199219 1253.265625 359.746094 1253.710938 360.308594 C 1254.363281 361.121094 1252.886719 359.160156 1253.898438 360.558594 C 1254.105469 360.847656 1254.320312 361.136719 1254.523438 361.433594 C 1255.460938 362.773438 1256.320312 364.160156 1257.109375 365.589844 C 1258.972656 368.945312 1259.390625 370.003906 1260.511719 373.386719 C 1265.199219 387.617188 1264.5 403.535156 1261.835938 418.589844 C 1258.136719 439.492188 1250.910156 459.761719 1242.25 479.078125 C 1218.921875 531.128906 1185.582031 578.765625 1148.890625 622.203125 C 1138.429688 634.582031 1127.609375 646.644531 1116.476562 658.421875 C 1111.050781 664.160156 1119.71875 672.863281 1125.15625 667.101562 C 1168.394531 621.371094 1207.824219 570.9375 1237.867188 515.488281 C 1249.632812 493.777344 1260.054688 471.097656 1267.359375 447.472656 C 1272.976562 429.324219 1277.070312 409.949219 1275.988281 390.859375 C 1275.144531 375.871094 1270.890625 360.925781 1260.664062 349.574219 C 1250.800781 338.648438 1236.726562 333.453125 1222.390625 331.9375 C 1204.835938 330.082031 1186.71875 333.726562 1170 338.867188 C 1147.75 345.722656 1126.5 355.859375 1106.265625 367.296875 C 1053.5625 397.082031 1006.097656 436.394531 963.332031 479.035156 C 917.519531 524.714844 875.84375 575.570312 842.910156 631.382812 C 829.695312 653.777344 817.898438 677.128906 808.828125 701.527344 C 801.734375 720.617188 796.234375 740.679688 795.09375 761.101562 C 794.238281 776.394531 796.152344 792.699219 804.160156 806.0625 C 811.515625 818.328125 823.605469 826.667969 837.386719 830.175781 C 853.691406 834.328125 871.085938 832.554688 887.300781 828.863281 C 908.660156 823.996094 929.152344 815.332031 948.625 805.425781 C 1000.742188 778.917969 1047.699219 741.964844 1090.140625 702.03125 C 1102.148438 690.730469 1113.8125 679.070312 1125.15625 667.101562 C 1130.601562 661.371094 1121.933594 652.671875 1116.476562 658.421875 " fill-opacity="1" fill-rule="nonzero"/><path fill="#2d2745" d="M 1010.265625 690.417969 C 952.261719 676.726562 894.980469 657.605469 841.988281 630.085938 C 821.164062 619.269531 800.8125 607.136719 782.226562 592.753906 C 767.953125 581.710938 753.878906 568.777344 743.949219 554.183594 C 739.835938 548.136719 736.328125 541.660156 734.273438 535.722656 C 733.238281 532.726562 732.414062 529.652344 731.871094 526.519531 C 731.808594 526.167969 731.75 525.8125 731.695312 525.453125 C 731.425781 523.726562 731.78125 526.265625 731.664062 525.207031 C 731.585938 524.5 731.515625 523.792969 731.464844 523.085938 C 731.351562 521.511719 731.3125 519.921875 731.351562 518.347656 C 731.394531 516.863281 731.503906 515.386719 731.691406 513.917969 C 731.511719 515.332031 731.800781 513.371094 731.875 512.976562 C 732.035156 512.117188 732.222656 511.253906 732.433594 510.40625 C 732.804688 508.902344 733.253906 507.429688 733.777344 505.976562 C 733.875 505.71875 734.785156 503.496094 734.273438 504.660156 C 734.605469 503.90625 734.957031 503.160156 735.328125 502.429688 C 738.535156 496.070312 741.738281 492.265625 747.121094 487.417969 C 752.46875 482.59375 758.855469 478.5625 765.851562 474.988281 C 773.859375 470.886719 782.191406 467.789062 790.855469 465.167969 C 812.367188 458.65625 834.78125 455.4375 857.160156 453.859375 C 917.085938 449.609375 977.792969 456.214844 1036.480469 468.261719 C 1096.636719 480.609375 1156.160156 498.871094 1211.683594 525.300781 C 1234.152344 535.992188 1256.058594 548.066406 1276.507812 562.28125 C 1292.433594 573.332031 1307.644531 585.84375 1320.167969 600.722656 C 1329.382812 611.667969 1336.6875 623.734375 1339.230469 637.777344 C 1339.296875 638.132812 1339.351562 638.492188 1339.40625 638.847656 C 1339.558594 639.90625 1339.25 637.363281 1339.425781 639.085938 C 1339.496094 639.792969 1339.5625 640.5 1339.617188 641.210938 C 1339.71875 642.785156 1339.746094 644.371094 1339.695312 645.949219 C 1339.667969 646.644531 1339.632812 647.339844 1339.582031 648.035156 C 1339.546875 648.425781 1339.320312 650.449219 1339.40625 649.8125 C 1339.503906 649.121094 1339.183594 651.042969 1339.136719 651.304688 C 1338.972656 652.175781 1338.78125 653.035156 1338.5625 653.890625 C 1337.121094 659.527344 1334.136719 665.269531 1330.90625 669.289062 C 1321.40625 681.097656 1308.046875 688.609375 1293.839844 694.164062 C 1274.117188 701.875 1253 706.078125 1232.023438 708.5 C 1174.4375 715.140625 1115.433594 710.300781 1058.53125 700.328125 C 1042.347656 697.492188 1026.261719 694.167969 1010.265625 690.417969 C 1002.582031 688.617188 999.292969 700.457031 1007.003906 702.261719 C 1069.382812 716.878906 1134.054688 725.699219 1198.230469 723.300781 C 1222.988281 722.375 1247.917969 719.769531 1272.011719 713.839844 C 1290.203125 709.359375 1308.753906 702.910156 1324.164062 692.003906 C 1336.421875 683.328125 1346.921875 671.546875 1350.535156 656.625 C 1353.976562 642.417969 1350.785156 627.945312 1344.425781 615.054688 C 1336.558594 599.132812 1324.078125 585.519531 1310.945312 573.765625 C 1293.734375 558.359375 1274.398438 545.34375 1254.425781 533.816406 C 1202.621094 503.9375 1145.511719 483.015625 1087.84375 467.71875 C 1024.761719 450.988281 959.242188 440.519531 893.871094 440.367188 C 867.664062 440.304688 841.332031 441.996094 815.523438 446.6875 C 795.40625 450.347656 775.164062 455.925781 757.097656 465.726562 C 743.695312 472.984375 730.714844 483.371094 724.121094 497.460938 C 718.050781 510.441406 717.703125 524.921875 722.246094 538.449219 C 727.59375 554.363281 738.019531 568.183594 749.578125 580.152344 C 764.785156 595.898438 782.664062 609.113281 801.101562 620.820312 C 849.917969 651.808594 904.800781 673.464844 960.070312 689.820312 C 975.59375 694.417969 991.25 698.542969 1007.003906 702.261719 C 1014.6875 704.074219 1017.96875 692.238281 1010.265625 690.417969 " fill-opacity="1" fill-rule="nonzero"/><path fill="#f28e61" d="M 894.011719 378.683594 C 894.011719 394.511719 881.183594 407.339844 865.355469 407.339844 C 849.527344 407.339844 836.695312 394.511719 836.695312 378.683594 C 836.695312 362.859375 849.527344 350.019531 865.355469 350.019531 C 881.183594 350.019531 894.011719 362.859375 894.011719 378.683594 " fill-opacity="1" fill-rule="nonzero"/><path fill="#f28e61" d="M 1313.660156 559.828125 C 1313.660156 575.65625 1300.832031 588.488281 1285.003906 588.488281 C 1269.175781 588.488281 1256.347656 575.65625 1256.347656 559.828125 C 1256.347656 544.003906 1269.175781 531.175781 1285.003906 531.175781 C 1300.832031 531.175781 1313.660156 544.003906 1313.660156 559.828125 " fill-opacity="1" fill-rule="nonzero"/><path fill="#f28e61" d="M 987.667969 794.542969 C 987.667969 810.371094 974.839844 823.199219 959.011719 823.199219 C 943.183594 823.199219 930.347656 810.371094 930.347656 794.542969 C 930.347656 778.71875 943.183594 765.886719 959.011719 765.886719 C 974.839844 765.886719 987.667969 778.71875 987.667969 794.542969 " fill-opacity="1" fill-rule="nonzero"/><g clip-path="url(#a36ff9a2b7)"><path fill="#6699ff" d="M 598.902344 628.882812 L 598.902344 627.070312 L 598.839844 627.070312 C 595.625 515.761719 516.171875 423.597656 410.878906 400.886719 L 411.425781 400.945312 L 353.574219 387.214844 L 353.378906 387.191406 C 334.269531 382.261719 314.242188 379.613281 293.589844 379.613281 C 164.164062 379.613281 58.84375 482.679688 55.128906 611.207031 L 55.066406 611.207031 L 55.066406 612.773438 C 55.035156 614.613281 54.945312 616.394531 54.945312 618.234375 L 55.066406 618.234375 L 55.066406 1116.714844 L 121.851562 1132.578125 L 241.792969 1132.578125 L 241.792969 627.988281 C 244.863281 567.613281 293.039062 519.144531 353.296875 515.601562 C 387.007812 535.261719 410.15625 571.050781 412.179688 612.371094 L 412.179688 1213.671875 L 478.964844 1213.671875 L 478.964844 1229.527344 L 598.902344 1229.527344 L 598.902344 634.101562 L 599.023438 634.101562 C 599.023438 632.351562 598.933594 630.632812 598.902344 628.882812 " fill-opacity="1" fill-rule="nonzero"/></g><g clip-path="url(#925a0edffc)"><path fill="#ff624a" d="M 360.375 395.476562 L 293.589844 379.613281 C 164.164062 379.613281 58.84375 482.679688 55.128906 611.207031 L 55.066406 611.207031 L 55.066406 612.773438 C 55.035156 614.613281 54.945312 616.394531 54.945312 618.234375 L 55.066406 618.234375 L 55.066406 1148.335938 L 241.792969 1164.191406 L 241.792969 627.988281 C 244.984375 565.261719 296.84375 515.371094 360.375 515.371094 L 360.375 395.476562 " fill-opacity="1" fill-rule="nonzero"/></g><g clip-path="url(#c1fecf63c0)"><path fill="#f0d2c2" d="M 121.851562 1019.765625 L 54.945312 1003.902344 L 54.945312 1191.90625 C 54.945312 1204.664062 63.707031 1215.75 76.117188 1218.6875 L 115.261719 1227.96875 C 119.640625 1229.011719 124.125 1229.527344 128.625 1229.527344 L 214.265625 1229.527344 C 229.464844 1229.527344 241.792969 1217.207031 241.792969 1202.007812 L 241.792969 1019.765625 L 121.851562 1019.765625 " fill-opacity="1" fill-rule="nonzero"/></g><path fill="#2d2745" d="M 131.96875 1109.828125 C 131.96875 1044.683594 131.96875 979.535156 131.96875 914.390625 C 131.96875 856.519531 131.96875 798.652344 131.96875 740.789062 C 131.96875 701.808594 131.96875 662.828125 131.96875 623.847656 C 131.96875 615.945312 119.6875 615.933594 119.6875 623.847656 C 119.6875 688.996094 119.6875 754.140625 119.6875 819.289062 C 119.6875 877.15625 119.6875 935.023438 119.6875 992.890625 C 119.6875 1031.871094 119.6875 1070.851562 119.6875 1109.828125 C 119.6875 1117.734375 131.96875 1117.742188 131.96875 1109.828125 " fill-opacity="1" fill-rule="nonzero"/><path fill="#2d2745" d="M 156.847656 526.023438 C 182.570312 475.246094 228.421875 435.464844 282.074219 416.511719 C 297.003906 411.242188 312.53125 407.464844 328.261719 405.601562 C 331.558594 405.214844 334.40625 403.0625 334.40625 399.460938 C 334.40625 396.449219 331.578125 392.9375 328.261719 393.320312 C 268.53125 400.394531 212.417969 431.121094 174.097656 477.511719 C 163.304688 490.574219 153.902344 504.703125 146.242188 519.828125 C 142.679688 526.863281 153.273438 533.085938 156.847656 526.023438 " fill-opacity="1" fill-rule="nonzero"/><path fill="#2d2745" d="M 362.90625 521.414062 C 410.503906 524.984375 452.785156 557.144531 468.601562 602.214844 C 473.175781 615.242188 475.5625 628.808594 475.652344 642.609375 C 475.699219 650.507812 487.984375 650.527344 487.933594 642.609375 C 487.597656 589.101562 455.003906 540.121094 405.691406 519.367188 C 392.042969 513.621094 377.667969 510.246094 362.90625 509.132812 C 355.019531 508.539062 355.058594 520.828125 362.90625 521.414062 " fill-opacity="1" fill-rule="nonzero"/><path fill="#2d2745" d="M 473.488281 712.203125 C 473.488281 769.519531 473.488281 826.828125 473.488281 884.144531 C 473.488281 900.519531 473.488281 916.894531 473.488281 933.269531 C 473.488281 941.171875 485.773438 941.183594 485.773438 933.269531 C 485.773438 875.957031 485.773438 818.644531 485.773438 761.332031 C 485.773438 744.953125 485.773438 728.582031 485.773438 712.203125 C 485.773438 704.300781 473.488281 704.289062 473.488281 712.203125 " fill-opacity="1" fill-rule="nonzero"/><g clip-path="url(#08dfd306b2)"><path fill="#645a8c" d="M 1444.65625 1234.894531 C 1444.65625 1234.746094 1444.65625 1068.429688 1444.65625 1052.910156 C 1444.65625 1026.878906 1400.503906 1015.460938 1394.722656 1002.066406 C 1388.933594 988.667969 1398.679688 973.144531 1405.375 964.617188 C 1412.074219 956.09375 1408.570312 943.898438 1408.570312 943.898438 C 1408.570312 925.160156 1376.058594 909.96875 1335.957031 909.96875 C 1295.847656 909.96875 1263.332031 925.160156 1263.332031 943.898438 C 1263.332031 943.902344 1259.835938 956.09375 1266.53125 964.617188 C 1273.234375 973.144531 1282.976562 988.667969 1277.191406 1002.066406 C 1271.410156 1015.460938 1227.253906 1026.878906 1227.253906 1052.910156 C 1227.253906 1068.441406 1227.253906 1234.894531 1227.253906 1234.894531 C 1227.253906 1248.144531 1275.921875 1258.878906 1335.957031 1258.878906 C 1395.988281 1258.878906 1444.65625 1248.144531 1444.65625 1234.894531 " fill-opacity="1" fill-rule="nonzero"/></g><path fill="#645a8c" d="M 1255.535156 1262.585938 C 1255.535156 1262.445312 1255.535156 1022.882812 1255.535156 1000.53125 C 1255.535156 963.046875 1191.960938 946.605469 1183.628906 927.316406 C 1175.296875 908.023438 1189.328125 885.664062 1198.976562 873.390625 C 1208.625 861.117188 1203.199219 839.421875 1203.199219 839.421875 L 1203.183594 839.421875 C 1198.695312 814.375 1153.785156 794.695312 1099.007812 794.695312 C 1044.234375 794.695312 999.328125 814.375 994.835938 839.421875 L 994.804688 839.421875 C 994.804688 839.421875 989.394531 861.117188 999.035156 873.390625 C 1008.683594 885.664062 1022.714844 908.023438 1014.382812 927.316406 C 1006.058594 946.605469 942.476562 963.046875 942.476562 1000.53125 C 942.476562 1022.890625 942.476562 1262.585938 942.476562 1262.585938 C 942.476562 1281.671875 1012.554688 1297.136719 1099.007812 1297.136719 C 1185.457031 1297.136719 1255.535156 1281.671875 1255.535156 1262.585938 " fill-opacity="1" fill-rule="nonzero"/><path fill="#2d2745" d="M 971.566406 1019.09375 C 1020.714844 1033.058594 1072.667969 1037.660156 1123.546875 1033.1875 C 1138.09375 1031.910156 1152.574219 1029.886719 1166.910156 1027.136719 C 1174.664062 1025.652344 1171.382812 1013.808594 1163.648438 1015.296875 C 1114.953125 1024.632812 1064.253906 1025.039062 1015.410156 1016.53125 C 1001.730469 1014.148438 988.191406 1011.046875 974.832031 1007.25 C 967.210938 1005.085938 963.964844 1016.933594 971.566406 1019.09375 " fill-opacity="1" fill-rule="nonzero"/><path fill="#2d2745" d="M 1033.894531 880.988281 C 1072.808594 887.867188 1112.40625 887.839844 1151.3125 880.949219 C 1154.585938 880.367188 1156.425781 876.378906 1155.605469 873.394531 C 1154.652344 869.949219 1151.328125 868.523438 1148.046875 869.105469 C 1111.460938 875.589844 1073.75 875.617188 1037.164062 869.144531 C 1033.902344 868.570312 1030.542969 870.027344 1029.609375 873.433594 C 1028.792969 876.402344 1030.613281 880.40625 1033.894531 880.988281 " fill-opacity="1" fill-rule="nonzero"/><path fill="#2d2745" d="M 1284.160156 967.472656 C 1311.507812 973.226562 1339.585938 974.5625 1367.332031 971.128906 C 1370.625 970.722656 1373.472656 968.597656 1373.472656 964.988281 C 1373.472656 961.984375 1370.648438 958.433594 1367.332031 958.84375 C 1340.6875 962.144531 1313.699219 961.15625 1287.425781 955.632812 C 1279.707031 954.007812 1276.414062 965.84375 1284.160156 967.472656 " fill-opacity="1" fill-rule="nonzero"/><path fill="#2d2745" d="M 1255.527344 1025.960938 C 1255.847656 1085.023438 1256.015625 1144.09375 1256.257812 1203.164062 C 1256.328125 1217.75 1256.386719 1232.335938 1256.464844 1246.921875 C 1256.507812 1254.828125 1268.792969 1254.839844 1268.753906 1246.921875 C 1268.433594 1187.855469 1268.265625 1128.78125 1268.015625 1069.71875 C 1267.953125 1055.132812 1267.882812 1040.546875 1267.808594 1025.960938 C 1267.773438 1018.058594 1255.480469 1018.042969 1255.527344 1025.960938 " fill-opacity="1" fill-rule="nonzero"/><path fill="#2d2745" d="M 1288.453125 1081.929688 C 1326.109375 1085.550781 1363.964844 1084.53125 1401.410156 1079.230469 C 1404.699219 1078.757812 1406.503906 1074.582031 1405.703125 1071.675781 C 1404.730469 1068.132812 1401.441406 1066.917969 1398.148438 1067.382812 C 1361.851562 1072.523438 1324.933594 1073.15625 1288.453125 1069.648438 C 1285.140625 1069.328125 1282.3125 1072.695312 1282.3125 1075.789062 C 1282.3125 1079.371094 1285.136719 1081.609375 1288.453125 1081.929688 " fill-opacity="1" fill-rule="nonzero"/><path fill="#f28e61" d="M 235.6875 1092.15625 L 533.027344 1092.15625 L 1083.027344 1184.652344 L 599.023438 1184.652344 L 235.6875 1092.15625 " fill-opacity="1" fill-rule="nonzero"/><path fill="#f5e3d9" d="M 1080.925781 1320.320312 L 603.675781 1320.320312 L 603.675781 1209.90625 L 1080.925781 1209.90625 C 1080.925781 1209.90625 1072.761719 1244.828125 1072.761719 1261.910156 C 1072.761719 1279 1080.925781 1320.320312 1080.925781 1320.320312 " fill-opacity="1" fill-rule="nonzero"/><path fill="#f28e61" d="M 1079.3125 1184.652344 L 615.53125 1184.652344 C 593.539062 1184.652344 593.503906 1209.90625 615.53125 1209.90625 L 1079.3125 1209.90625 C 1101.304688 1209.90625 1101.34375 1184.652344 1079.3125 1184.652344 " fill-opacity="1" fill-rule="nonzero"/><g clip-path="url(#b3f77aaa5b)"><path fill="#f28e61" d="M 1079.3125 1320.320312 L 620.183594 1320.320312 C 598.191406 1320.320312 598.152344 1345.574219 620.183594 1345.574219 L 1079.3125 1345.574219 C 1101.304688 1345.574219 1101.34375 1320.320312 1079.3125 1320.320312 " fill-opacity="1" fill-rule="nonzero"/></g><path fill="#40856b" d="M 980.839844 1251.722656 L 917.351562 1251.722656 C 921.808594 1269.964844 926.800781 1300.699219 923.886719 1340.667969 C 923.644531 1344.007812 929.34375 1343.078125 937.53125 1336.414062 C 947.863281 1328.003906 953.988281 1320.875 953.988281 1320.875 C 953.988281 1320.875 974.546875 1338.019531 979.671875 1340.832031 C 984.78125 1343.648438 989.304688 1315.007812 987.089844 1280.453125 C 986.457031 1270.605469 983.71875 1260.261719 980.839844 1251.722656 " fill-opacity="1" fill-rule="nonzero"/><g clip-path="url(#500edea594)"><path fill="#f28e61" d="M 630.027344 1323.667969 C 616.699219 1294.664062 620.015625 1231.910156 630.246094 1206.101562 C 634.628906 1195.046875 620.9375 1185.511719 610.96875 1183.777344 L 614.867188 1183.753906 L 242.257812 1093.203125 C 242.257812 1093.203125 241.253906 1092.441406 239.527344 1092.453125 C 233.078125 1091.3125 226.546875 1093.417969 223.734375 1100.519531 C 210.484375 1133.949219 209.742188 1206.484375 226.769531 1243.550781 C 229.679688 1249.890625 234.398438 1253.144531 239.234375 1254.003906 L 614.445312 1345.304688 L 614.445312 1345.300781 C 625.125 1347.339844 636.449219 1337.652344 630.027344 1323.667969 " fill-opacity="1" fill-rule="nonzero"/></g><path fill="#2d2745" d="M 604.550781 1191.90625 C 597.535156 1209.242188 594.894531 1228.484375 593.53125 1247.027344 C 591.949219 1268.484375 592.636719 1290.351562 596.722656 1311.515625 C 598.773438 1322.140625 601.882812 1332.570312 606.699219 1342.285156 C 610.210938 1349.363281 620.804688 1343.15625 617.304688 1336.085938 C 609.1875 1319.703125 606.539062 1300.589844 605.492188 1282.535156 C 604.328125 1262.421875 605.277344 1241.945312 608.945312 1222.109375 C 610.640625 1212.941406 612.894531 1203.820312 616.394531 1195.167969 C 617.640625 1192.09375 615.042969 1188.417969 612.105469 1187.613281 C 608.59375 1186.652344 605.800781 1188.8125 604.550781 1191.90625 " fill-opacity="1" fill-rule="nonzero"/><path fill="#2d2745" d="M 552.492188 1177.265625 C 545.472656 1194.605469 542.835938 1213.851562 541.46875 1232.390625 C 539.886719 1253.851562 540.578125 1275.71875 544.664062 1296.878906 C 546.714844 1307.5 549.824219 1317.933594 554.636719 1327.648438 C 558.148438 1334.730469 568.746094 1328.515625 565.242188 1321.445312 C 557.125 1305.074219 554.476562 1285.960938 553.429688 1267.90625 C 552.265625 1247.78125 553.21875 1227.304688 556.886719 1207.472656 C 558.578125 1198.308594 560.832031 1189.1875 564.332031 1180.53125 C 565.578125 1177.453125 562.980469 1173.785156 560.042969 1172.980469 C 556.535156 1172.015625 553.742188 1174.183594 552.492188 1177.265625 " fill-opacity="1" fill-rule="nonzero"/><path fill="#2d2745" d="M 277.070312 1110.195312 C 270.054688 1127.535156 267.414062 1146.785156 266.050781 1165.320312 C 264.46875 1186.785156 265.15625 1208.648438 269.242188 1229.8125 C 271.292969 1240.429688 274.402344 1250.863281 279.214844 1260.578125 C 282.726562 1267.664062 293.324219 1261.445312 289.820312 1254.378906 C 281.703125 1237.996094 279.054688 1218.890625 278.011719 1200.828125 C 276.84375 1180.710938 277.796875 1160.238281 281.464844 1140.402344 C 283.15625 1131.242188 285.410156 1122.117188 288.914062 1113.457031 C 290.15625 1110.386719 287.558594 1106.710938 284.625 1105.914062 C 281.113281 1104.945312 278.320312 1107.113281 277.070312 1110.195312 " fill-opacity="1" fill-rule="nonzero"/><path fill="#f5e3d9" d="M 1069.054688 1161.964844 L 640.300781 1161.964844 L 640.300781 1092.886719 L 1069.054688 1092.886719 C 1069.054688 1092.886719 1066.375 1112.074219 1066.375 1127.425781 C 1066.375 1142.777344 1069.054688 1161.964844 1069.054688 1161.964844 " fill-opacity="1" fill-rule="nonzero"/><path fill="#2d2745" d="M 1067.609375 1161.964844 L 655.132812 1161.964844 C 635.375 1161.964844 635.34375 1184.652344 655.132812 1184.652344 L 1067.609375 1184.652344 C 1087.363281 1184.652344 1087.402344 1161.964844 1067.609375 1161.964844 " fill-opacity="1" fill-rule="nonzero"/><path fill="#2d2745" d="M 1072.789062 1070.859375 L 1072.714844 1070.84375 L 732.039062 987.507812 L 731.714844 987.4375 C 730.222656 987.089844 728.617188 986.839844 726.789062 986.839844 L 310.136719 986.839844 C 290.378906 986.839844 290.34375 1009.527344 310.136719 1009.527344 L 376.378906 1009.527344 L 638.679688 1074.96875 C 632.945312 1081.617188 636.992188 1092.886719 650.953125 1092.886719 L 1067.609375 1092.886719 C 1085.433594 1092.886719 1087.144531 1074.472656 1072.789062 1070.859375 " fill-opacity="1" fill-rule="nonzero"/><path fill="#2d2745" d="M 663.976562 1164.976562 C 652.007812 1138.917969 651.480469 1112.652344 660.671875 1089.46875 C 664.609375 1079.53125 655.808594 1070.972656 646.855469 1069.40625 L 646.855469 1069.390625 L 309.65625 987.351562 C 309.65625 987.351562 309.652344 987.363281 309.652344 987.363281 C 303.859375 986.339844 297.992188 988.234375 295.464844 994.609375 C 283.566406 1024.648438 286.398438 1059.695312 301.695312 1093 C 304.308594 1098.691406 308.550781 1101.613281 312.890625 1102.398438 L 649.976562 1184.417969 L 649.976562 1184.410156 C 659.574219 1186.242188 669.746094 1177.539062 663.976562 1164.976562 " fill-opacity="1" fill-rule="nonzero"/><path fill="#645a8c" d="M 313.394531 1008.65625 C 355.882812 1019.171875 398.371094 1029.691406 440.859375 1040.207031 C 488 1051.875 535.144531 1063.539062 582.289062 1075.210938 C 604.628906 1080.742188 626.96875 1086.265625 649.308594 1091.796875 C 656.980469 1093.699219 660.253906 1081.855469 652.574219 1079.957031 C 610.085938 1069.4375 567.597656 1058.921875 525.109375 1048.40625 C 477.964844 1036.738281 430.820312 1025.070312 383.675781 1013.398438 C 361.335938 1007.871094 338.996094 1002.34375 316.660156 996.8125 C 308.984375 994.914062 305.710938 1006.753906 313.394531 1008.65625 " fill-opacity="1" fill-rule="nonzero"/><path fill="#6699ff" d="M 727.5 1127.425781 C 727.5 1127.425781 744.644531 1168.546875 739.78125 1235.234375 C 739.535156 1238.574219 743.871094 1241.550781 752.316406 1230.546875 C 760.761719 1219.546875 763.832031 1215.453125 763.832031 1215.453125 C 763.832031 1215.453125 774.582031 1232.59375 779.699219 1235.410156 C 784.816406 1238.226562 788.761719 1213.472656 787.117188 1175.019531 C 785.839844 1145.089844 773.300781 1127.425781 773.300781 1127.425781 L 727.5 1127.425781 " fill-opacity="1" fill-rule="nonzero"/><path fill="#ff624a" d="M 861.925781 833.136719 C 838.609375 796.082031 791.972656 794.261719 757.660156 812.726562 C 741.746094 797.660156 719.285156 792.148438 696.890625 796.304688 C 639.578125 806.929688 601.746094 875.304688 608.625 929.867188 C 619.324219 1014.746094 722.105469 1062.078125 798.4375 1032.949219 C 878.148438 1002.53125 906.285156 903.660156 861.925781 833.136719 " fill-opacity="1" fill-rule="nonzero"/><path fill="#2d2745" d="M 699.445312 768.507812 C 713.449219 787.433594 725.359375 807.816406 734.988281 829.300781 C 736.347656 832.328125 740.75 833.050781 743.390625 831.503906 C 746.507812 829.683594 746.957031 826.144531 745.59375 823.101562 C 735.964844 801.621094 724.058594 781.238281 710.050781 762.3125 C 708.078125 759.648438 704.730469 758.304688 701.648438 760.105469 C 699.023438 761.640625 697.460938 765.828125 699.445312 768.507812 " fill-opacity="1" fill-rule="nonzero"/><path fill="#2d2745" d="M 701.324219 838.355469 C 723.90625 841.507812 746.617188 834.894531 763.703125 819.691406 C 769.621094 814.425781 760.910156 805.765625 755.019531 811.007812 C 741.550781 822.988281 722.515625 829.015625 704.589844 826.511719 C 701.308594 826.054688 697.996094 827.3125 697.035156 830.800781 C 696.246094 833.675781 698.019531 837.894531 701.324219 838.355469 " fill-opacity="1" fill-rule="nonzero"/><path fill="#40856b" d="M 826.269531 698.0625 C 813.105469 698.386719 797.644531 704.351562 786.183594 710.5 C 771.996094 718.113281 759.457031 729.847656 747.964844 741.023438 C 737.804688 750.910156 725.246094 762.164062 722.875 776.816406 C 720.414062 792.023438 731.003906 805.929688 747.03125 804.464844 C 769.253906 802.429688 791.953125 787 809.515625 774.007812 C 827.023438 761.058594 847.527344 746.203125 850.429688 724.726562 C 852.433594 709.882812 841.113281 697.695312 826.269531 698.0625 " fill-opacity="1" fill-rule="nonzero"/></svg>