<svg xmlns="http://www.w3.org/2000/svg" xmlns:xlink="http://www.w3.org/1999/xlink" width="2000" zoomAndPan="magnify" viewBox="0 0 1500 1499.999933" height="2000" preserveAspectRatio="xMidYMid meet" version="1.0"><path fill="#95e5d6" d="M 1387.585938 560.890625 C 1302.335938 284.191406 1044.578125 83.125 739.835938 83.125 C 730.171875 83.109375 720.515625 83.304688 710.863281 83.703125 C 701.210938 84.101562 691.570312 84.710938 681.941406 85.523438 C 672.316406 86.335938 662.710938 87.355469 653.125 88.582031 C 643.542969 89.808594 633.992188 91.242188 624.46875 92.875 C 614.949219 94.511719 605.464844 96.351562 596.023438 98.398438 C 586.578125 100.441406 577.183594 102.683594 567.839844 105.132812 C 558.492188 107.578125 549.203125 110.226562 539.96875 113.070312 C 530.738281 115.917969 521.570312 118.957031 512.46875 122.199219 C 503.367188 125.4375 494.339844 128.871094 485.382812 132.496094 C 476.429688 136.125 467.558594 139.941406 458.765625 143.949219 C 449.976562 147.957031 441.277344 152.152344 432.664062 156.535156 C 424.054688 160.914062 415.542969 165.480469 407.128906 170.226562 C 398.714844 174.972656 390.40625 179.898438 382.203125 185.003906 C 374 190.105469 365.910156 195.382812 357.933594 200.835938 C 349.960938 206.285156 342.105469 211.90625 334.371094 217.695312 C 326.636719 223.480469 319.027344 229.433594 311.550781 235.546875 L 63.480469 803.683594 C 85.644531 1157.875 380 1438.246094 739.835938 1438.246094 C 751.980469 1438.257812 764.117188 1437.945312 776.246094 1437.304688 C 788.375 1436.664062 800.476562 1435.695312 812.550781 1434.402344 C 824.628906 1433.109375 836.660156 1431.492188 848.648438 1429.550781 C 860.640625 1427.609375 872.566406 1425.347656 884.433594 1422.765625 C 896.300781 1420.183594 908.089844 1417.28125 919.800781 1414.0625 C 931.511719 1410.84375 943.128906 1407.3125 954.648438 1403.46875 C 966.171875 1399.625 977.578125 1395.472656 988.875 1391.015625 C 1000.171875 1386.554688 1011.339844 1381.796875 1022.382812 1376.734375 C 1033.421875 1371.675781 1044.316406 1366.320312 1055.070312 1360.671875 C 1065.820312 1355.027344 1076.414062 1349.09375 1086.847656 1342.875 C 1097.277344 1336.65625 1107.535156 1330.164062 1117.617188 1323.394531 C 1127.699219 1316.621094 1137.59375 1309.585938 1147.292969 1302.28125 C 1156.996094 1294.980469 1166.496094 1287.417969 1175.792969 1279.605469 C 1185.089844 1271.789062 1194.167969 1263.730469 1203.027344 1255.425781 C 1211.890625 1247.121094 1220.519531 1238.585938 1228.921875 1229.816406 C 1237.320312 1221.046875 1245.480469 1212.058594 1253.398438 1202.847656 L 1253.371094 1202.820312 Z M 1387.585938 560.890625 " fill-opacity="1" fill-rule="nonzero"/><path fill="#81c83d" d="M 1130.308594 642.535156 C 1133.058594 642.535156 1135.804688 642.445312 1138.550781 642.265625 C 1141.292969 642.089844 1144.03125 641.824219 1146.757812 641.46875 C 1149.484375 641.117188 1152.199219 640.675781 1154.898438 640.148438 C 1157.597656 639.621094 1160.277344 639.007812 1162.9375 638.3125 C 1165.59375 637.613281 1168.230469 636.828125 1170.839844 635.960938 C 1173.449219 635.09375 1176.027344 634.144531 1178.578125 633.113281 C 1181.125 632.078125 1183.640625 630.964844 1186.117188 629.773438 C 1188.59375 628.578125 1191.03125 627.304688 1193.425781 625.957031 C 1195.820312 624.605469 1198.171875 623.179688 1200.476562 621.679688 C 1202.78125 620.179688 1205.035156 618.609375 1207.238281 616.960938 C 1209.441406 615.316406 1211.589844 613.605469 1213.683594 611.820312 C 1215.777344 610.039062 1217.8125 608.191406 1219.789062 606.277344 C 1221.765625 604.367188 1223.675781 602.390625 1225.527344 600.355469 C 1227.375 598.320312 1229.15625 596.226562 1230.871094 594.078125 C 1232.585938 591.929688 1234.230469 589.726562 1235.804688 587.472656 C 1237.378906 585.21875 1238.875 582.914062 1240.300781 580.5625 C 1241.730469 578.210938 1243.078125 575.816406 1244.351562 573.378906 C 1245.621094 570.941406 1246.816406 568.46875 1247.929688 565.953125 C 1249.042969 563.4375 1250.074219 560.890625 1251.027344 558.3125 C 1251.976562 555.730469 1252.84375 553.125 1253.628906 550.488281 C 1254.410156 547.851562 1255.109375 545.195312 1255.722656 542.515625 C 1256.335938 539.835938 1256.859375 537.136719 1257.300781 534.421875 C 1257.742188 531.710938 1258.09375 528.984375 1258.359375 526.246094 C 1258.625 523.511719 1258.800781 520.769531 1258.890625 518.019531 C 1258.980469 515.273438 1258.984375 512.523438 1258.898438 509.777344 C 1258.808594 507.027344 1258.636719 504.285156 1258.375 501.550781 C 1258.113281 498.8125 1257.761719 496.085938 1257.324219 493.371094 C 1256.886719 490.65625 1256.363281 487.960938 1255.753906 485.277344 C 1255.144531 482.597656 1254.449219 479.9375 1253.667969 477.300781 C 1252.886719 474.664062 1252.023438 472.058594 1251.078125 469.476562 C 1250.128906 466.894531 1249.101562 464.347656 1247.988281 461.832031 C 1246.878906 459.316406 1245.6875 456.839844 1244.417969 454.398438 C 1259.894531 456.828125 1276.835938 463.6875 1294.878906 478 C 1361.265625 530.625 1379.421875 548.949219 1387.585938 560.890625 C 1389.679688 567.707031 1391.667969 574.554688 1393.546875 581.429688 C 1395.425781 588.308594 1397.195312 595.214844 1398.859375 602.148438 C 1400.519531 609.085938 1402.074219 616.042969 1403.515625 623.027344 C 1404.957031 630.007812 1406.289062 637.011719 1407.511719 644.039062 C 1408.734375 651.0625 1409.84375 658.105469 1410.84375 665.164062 C 1411.84375 672.226562 1412.730469 679.300781 1413.507812 686.386719 C 1414.285156 693.476562 1414.949219 700.574219 1415.503906 707.683594 C 1416.054688 714.792969 1416.496094 721.90625 1416.824219 729.03125 C 1417.152344 736.152344 1417.367188 743.28125 1417.472656 750.410156 C 1417.578125 757.539062 1417.570312 764.667969 1417.449219 771.796875 C 1417.328125 778.925781 1417.09375 786.054688 1416.75 793.175781 C 1416.402344 800.296875 1415.945312 807.410156 1415.375 814.519531 C 1414.804688 821.628906 1414.125 828.722656 1413.332031 835.808594 C 1412.539062 842.894531 1411.632812 849.96875 1410.617188 857.027344 C 1409.601562 864.082031 1408.472656 871.125 1407.234375 878.144531 C 1405.996094 885.167969 1404.648438 892.167969 1403.1875 899.148438 C 1401.730469 906.128906 1400.160156 913.082031 1398.484375 920.011719 C 1396.804688 926.941406 1395.019531 933.84375 1393.121094 940.71875 C 1391.226562 947.59375 1389.222656 954.433594 1387.113281 961.246094 C 1385 968.058594 1382.78125 974.832031 1380.457031 981.574219 C 1378.132812 988.3125 1375.703125 995.015625 1373.164062 1001.679688 C 1370.628906 1008.34375 1367.988281 1014.96875 1365.242188 1021.550781 C 1362.496094 1028.128906 1359.648438 1034.667969 1356.699219 1041.15625 C 1353.746094 1047.648438 1350.695312 1054.09375 1347.539062 1060.488281 C 1344.386719 1066.882812 1341.132812 1073.226562 1337.777344 1079.519531 C 1334.425781 1085.8125 1330.972656 1092.050781 1327.421875 1098.234375 C 1323.871094 1104.417969 1320.222656 1110.542969 1316.480469 1116.613281 C 1312.734375 1122.683594 1308.894531 1128.691406 1304.960938 1134.640625 C 1301.027344 1140.585938 1297.003906 1146.472656 1292.882812 1152.292969 C 1288.765625 1158.113281 1284.554688 1163.867188 1280.253906 1169.558594 C 1275.957031 1175.246094 1271.566406 1180.863281 1267.089844 1186.414062 C 1262.613281 1191.964844 1258.046875 1197.441406 1253.398438 1202.847656 L 1253.371094 1202.820312 C 1014.421875 1317.355469 1121.808594 1061.945312 1076.457031 1016.464844 C 1043.589844 983.488281 840.078125 1064.316406 905.902344 941.679688 C 908.953125 935.976562 995.472656 831.6875 998.664062 824.996094 C 1070.472656 672.433594 630.609375 851.929688 771.261719 642.535156 C 881.449219 478.425781 904.632812 534.832031 1003.660156 536.640625 C 1003.992188 538.476562 1004.363281 540.304688 1004.773438 542.128906 C 1005.183594 543.949219 1005.632812 545.761719 1006.121094 547.5625 C 1006.609375 549.363281 1007.136719 551.15625 1007.703125 552.933594 C 1008.269531 554.710938 1008.875 556.480469 1009.519531 558.230469 C 1010.164062 559.984375 1010.84375 561.722656 1011.5625 563.445312 C 1012.285156 565.167969 1013.039062 566.875 1013.832031 568.5625 C 1014.628906 570.253906 1015.457031 571.925781 1016.324219 573.578125 C 1017.191406 575.234375 1018.09375 576.867188 1019.03125 578.480469 C 1019.96875 580.097656 1020.941406 581.691406 1021.949219 583.261719 C 1022.953125 584.835938 1023.996094 586.382812 1025.070312 587.910156 C 1026.144531 589.4375 1027.25 590.941406 1028.390625 592.421875 C 1029.53125 593.898438 1030.703125 595.351562 1031.90625 596.78125 C 1033.109375 598.207031 1034.34375 599.609375 1035.609375 600.984375 C 1036.871094 602.355469 1038.164062 603.703125 1039.488281 605.019531 C 1040.8125 606.339844 1042.164062 607.625 1043.542969 608.886719 C 1044.921875 610.144531 1046.324219 611.375 1047.757812 612.570312 C 1049.191406 613.769531 1050.648438 614.933594 1052.132812 616.070312 C 1053.617188 617.203125 1055.121094 618.304688 1056.652344 619.375 C 1058.183594 620.441406 1059.738281 621.476562 1061.316406 622.476562 C 1062.890625 623.480469 1064.488281 624.445312 1066.105469 625.378906 C 1067.726562 626.308594 1069.363281 627.203125 1071.019531 628.066406 C 1072.679688 628.925781 1074.355469 629.75 1076.046875 630.535156 C 1077.738281 631.324219 1079.449219 632.074219 1081.175781 632.785156 C 1082.902344 633.5 1084.640625 634.175781 1086.398438 634.8125 C 1088.152344 635.449219 1089.921875 636.046875 1091.703125 636.609375 C 1093.484375 637.167969 1095.277344 637.6875 1097.082031 638.171875 C 1098.886719 638.652344 1100.699219 639.097656 1102.523438 639.5 C 1104.34375 639.902344 1106.175781 640.265625 1108.015625 640.589844 C 1109.855469 640.914062 1111.699219 641.195312 1113.550781 641.441406 C 1115.402344 641.683594 1117.257812 641.886719 1119.121094 642.046875 C 1120.980469 642.210938 1122.84375 642.332031 1124.707031 642.414062 C 1126.574219 642.496094 1128.441406 642.535156 1130.308594 642.535156 Z M 1130.308594 642.535156 " fill-opacity="1" fill-rule="nonzero"/><path fill="#4ca987" d="M 1130.308594 642.535156 C 1128.417969 642.535156 1126.527344 642.496094 1124.640625 642.410156 C 1122.75 642.328125 1120.863281 642.203125 1118.980469 642.035156 C 1117.097656 641.871094 1115.21875 641.660156 1113.34375 641.414062 C 1111.46875 641.164062 1109.601562 640.871094 1107.742188 640.539062 C 1105.878906 640.210938 1104.027344 639.835938 1102.179688 639.421875 C 1100.335938 639.011719 1098.5 638.554688 1096.675781 638.0625 C 1094.851562 637.566406 1093.039062 637.035156 1091.234375 636.460938 C 1089.433594 635.886719 1087.648438 635.273438 1085.871094 634.617188 C 1084.097656 633.964844 1082.339844 633.273438 1080.59375 632.542969 C 1078.851562 631.8125 1077.125 631.042969 1075.414062 630.238281 C 1073.703125 629.433594 1072.011719 628.589844 1070.339844 627.707031 C 1068.667969 626.824219 1067.015625 625.90625 1065.382812 624.953125 C 1063.75 624 1062.140625 623.011719 1060.550781 621.984375 C 1058.960938 620.960938 1057.398438 619.902344 1055.855469 618.808594 C 1054.3125 617.714844 1052.796875 616.585938 1051.304688 615.425781 C 1049.8125 614.265625 1048.34375 613.070312 1046.90625 611.847656 C 1045.464844 610.621094 1044.054688 609.363281 1042.667969 608.078125 C 1041.285156 606.789062 1039.929688 605.472656 1038.605469 604.125 C 1037.277344 602.777344 1035.980469 601.402344 1034.714844 599.996094 C 1033.449219 598.589844 1032.214844 597.160156 1031.015625 595.699219 C 1029.8125 594.242188 1028.640625 592.757812 1027.503906 591.246094 C 1026.367188 589.738281 1025.265625 588.203125 1024.195312 586.640625 C 1023.128906 585.082031 1022.09375 583.5 1021.09375 581.898438 C 1020.09375 580.292969 1019.128906 578.667969 1018.203125 577.019531 C 1017.273438 575.371094 1016.382812 573.707031 1015.53125 572.019531 C 1014.675781 570.332031 1013.859375 568.628906 1013.078125 566.90625 C 1012.300781 565.183594 1011.558594 563.445312 1010.855469 561.691406 C 1010.15625 559.933594 1009.492188 558.164062 1008.867188 556.378906 C 1008.242188 554.597656 1007.65625 552.800781 1007.113281 550.988281 C 1006.566406 549.179688 1006.0625 547.359375 1005.597656 545.527344 C 1005.132812 543.695312 1004.707031 541.851562 1004.324219 540 C 1003.941406 538.148438 1003.597656 536.292969 1003.296875 534.425781 C 1002.996094 532.558594 1002.734375 530.6875 1002.515625 528.808594 C 1002.296875 526.933594 1002.117188 525.050781 1001.980469 523.164062 C 1001.847656 521.28125 1001.75 519.390625 1001.699219 517.503906 C 1001.644531 515.613281 1001.632812 513.722656 1001.664062 511.832031 C 1001.695312 509.941406 1001.765625 508.054688 1001.878906 506.167969 C 1001.992188 504.28125 1002.148438 502.398438 1002.34375 500.515625 C 1002.542969 498.636719 1002.78125 496.761719 1003.058594 494.890625 C 1003.339844 493.023438 1003.660156 491.160156 1004.019531 489.304688 C 1004.382812 487.449219 1004.785156 485.601562 1005.226562 483.765625 C 1005.671875 481.925781 1006.152344 480.101562 1006.675781 478.285156 C 1007.199219 476.46875 1007.765625 474.664062 1008.367188 472.871094 C 1008.96875 471.078125 1009.613281 469.300781 1010.292969 467.539062 C 1010.976562 465.777344 1011.695312 464.027344 1012.453125 462.296875 C 1013.210938 460.566406 1014.007812 458.851562 1014.84375 457.15625 C 1015.675781 455.457031 1016.546875 453.78125 1017.457031 452.121094 C 1018.363281 450.464844 1019.308594 448.828125 1020.289062 447.210938 C 1021.269531 445.59375 1022.28125 444 1023.332031 442.429688 C 1024.382812 440.855469 1025.46875 439.308594 1026.585938 437.785156 C 1027.707031 436.261719 1028.859375 434.761719 1030.042969 433.289062 C 1031.226562 431.816406 1032.445312 430.371094 1033.691406 428.949219 C 1034.941406 427.53125 1036.222656 426.140625 1037.53125 424.777344 C 1038.839844 423.414062 1040.179688 422.078125 1041.550781 420.773438 C 1042.917969 419.472656 1044.316406 418.199219 1045.738281 416.957031 C 1047.164062 415.710938 1048.617188 414.503906 1050.09375 413.324219 C 1051.574219 412.144531 1053.074219 411 1054.605469 409.886719 C 1056.132812 408.773438 1057.6875 407.695312 1059.261719 406.652344 C 1060.839844 405.609375 1062.4375 404.601562 1064.058594 403.628906 C 1065.679688 402.652344 1067.320312 401.714844 1068.984375 400.816406 C 1070.644531 399.914062 1072.324219 399.050781 1074.027344 398.222656 C 1075.726562 397.394531 1077.445312 396.605469 1079.179688 395.855469 C 1080.914062 395.105469 1082.664062 394.390625 1084.429688 393.71875 C 1086.199219 393.042969 1087.976562 392.410156 1089.773438 391.8125 C 1091.566406 391.21875 1093.375 390.660156 1095.191406 390.144531 C 1097.011719 389.628906 1098.839844 389.152344 1100.679688 388.71875 C 1102.519531 388.285156 1104.371094 387.890625 1106.226562 387.535156 C 1108.085938 387.179688 1109.949219 386.867188 1111.820312 386.597656 C 1113.691406 386.324219 1115.566406 386.09375 1117.449219 385.90625 C 1119.328125 385.714844 1121.214844 385.570312 1123.101562 385.464844 C 1124.988281 385.355469 1126.878906 385.292969 1128.769531 385.269531 C 1130.660156 385.246094 1132.550781 385.265625 1134.441406 385.328125 C 1136.332031 385.386719 1138.21875 385.488281 1140.101562 385.632812 C 1141.988281 385.777344 1143.871094 385.960938 1145.746094 386.191406 C 1147.625 386.417969 1149.496094 386.683594 1151.359375 386.992188 C 1153.226562 387.300781 1155.082031 387.652344 1156.933594 388.042969 C 1158.78125 388.433594 1160.625 388.867188 1162.453125 389.339844 C 1164.285156 389.8125 1166.105469 390.324219 1167.914062 390.875 C 1169.722656 391.429688 1171.515625 392.019531 1173.296875 392.652344 C 1175.082031 393.28125 1176.847656 393.953125 1178.601562 394.664062 C 1180.351562 395.371094 1182.089844 396.121094 1183.808594 396.90625 C 1185.527344 397.691406 1187.230469 398.515625 1188.914062 399.375 C 1190.597656 400.238281 1192.257812 401.136719 1193.902344 402.070312 C 1195.546875 403.003906 1197.167969 403.972656 1198.769531 404.980469 C 1200.371094 405.984375 1201.949219 407.027344 1203.503906 408.101562 C 1205.058594 409.175781 1206.589844 410.285156 1208.097656 411.429688 C 1209.601562 412.570312 1211.082031 413.746094 1212.535156 414.953125 C 1213.992188 416.160156 1215.417969 417.402344 1216.816406 418.671875 C 1218.21875 419.941406 1219.589844 421.246094 1220.929688 422.574219 C 1222.273438 423.90625 1223.585938 425.265625 1224.867188 426.65625 C 1226.148438 428.046875 1227.402344 429.460938 1228.621094 430.90625 C 1229.839844 432.351562 1231.027344 433.820312 1232.183594 435.316406 C 1233.339844 436.816406 1234.460938 438.335938 1235.546875 439.882812 C 1236.636719 441.429688 1237.6875 442.996094 1238.707031 444.589844 C 1239.726562 446.183594 1240.710938 447.796875 1241.65625 449.433594 C 1242.605469 451.066406 1243.515625 452.722656 1244.390625 454.398438 L 1244.417969 454.398438 C 1245.6875 456.839844 1246.878906 459.316406 1247.988281 461.832031 C 1249.101562 464.347656 1250.128906 466.894531 1251.078125 469.476562 C 1252.023438 472.058594 1252.886719 474.664062 1253.667969 477.300781 C 1254.449219 479.9375 1255.144531 482.597656 1255.753906 485.277344 C 1256.363281 487.960938 1256.886719 490.65625 1257.324219 493.371094 C 1257.761719 496.085938 1258.113281 498.8125 1258.375 501.550781 C 1258.636719 504.285156 1258.808594 507.027344 1258.898438 509.777344 C 1258.984375 512.523438 1258.980469 515.273438 1258.890625 518.019531 C 1258.800781 520.769531 1258.625 523.511719 1258.359375 526.246094 C 1258.09375 528.984375 1257.742188 531.710938 1257.300781 534.421875 C 1256.859375 537.136719 1256.335938 539.835938 1255.722656 542.515625 C 1255.109375 545.195312 1254.410156 547.851562 1253.628906 550.488281 C 1252.84375 553.125 1251.976562 555.730469 1251.027344 558.3125 C 1250.074219 560.890625 1249.042969 563.4375 1247.929688 565.953125 C 1246.816406 568.46875 1245.621094 570.941406 1244.351562 573.378906 C 1243.078125 575.816406 1241.730469 578.210938 1240.300781 580.5625 C 1238.875 582.914062 1237.378906 585.21875 1235.804688 587.472656 C 1234.230469 589.726562 1232.585938 591.929688 1230.871094 594.078125 C 1229.15625 596.226562 1227.375 598.320312 1225.527344 600.355469 C 1223.675781 602.390625 1221.765625 604.367188 1219.789062 606.277344 C 1217.8125 608.191406 1215.777344 610.039062 1213.683594 611.820312 C 1211.589844 613.605469 1209.441406 615.316406 1207.238281 616.960938 C 1205.035156 618.609375 1202.78125 620.179688 1200.476562 621.679688 C 1198.171875 623.179688 1195.820312 624.605469 1193.425781 625.957031 C 1191.03125 627.304688 1188.59375 628.578125 1186.117188 629.773438 C 1183.640625 630.964844 1181.125 632.078125 1178.578125 633.113281 C 1176.027344 634.144531 1173.449219 635.09375 1170.839844 635.960938 C 1168.230469 636.828125 1165.59375 637.613281 1162.9375 638.3125 C 1160.277344 639.007812 1157.597656 639.621094 1154.898438 640.148438 C 1152.199219 640.675781 1149.484375 641.117188 1146.757812 641.46875 C 1144.03125 641.824219 1141.292969 642.089844 1138.550781 642.265625 C 1135.804688 642.445312 1133.058594 642.535156 1130.308594 642.535156 Z M 1130.308594 642.535156 " fill-opacity="1" fill-rule="nonzero"/><path fill="#6994fe" d="M 952.128906 296.699219 C 1001.910156 291.023438 993.355469 336.53125 993.355469 336.53125 L 740.171875 336.53125 C 727.605469 283.683594 789.25 303.164062 799.925781 286.761719 C 802.5625 282.671875 805.414062 278.738281 808.480469 274.960938 C 849.03125 224.875 893.675781 251.808594 922.730469 274.929688 C 937.273438 286.535156 947.917969 297.179688 952.128906 296.699219 Z M 952.128906 296.699219 " fill-opacity="1" fill-rule="nonzero"/><path fill="#80aaff" d="M 909.429688 235.125 C 959.214844 229.421875 950.6875 274.929688 950.6875 274.929688 L 922.730469 274.929688 C 893.675781 251.808594 849.03125 224.875 808.480469 274.960938 L 808.453125 274.929688 L 697.503906 274.929688 C 684.910156 222.082031 746.582031 241.589844 757.230469 225.160156 C 819.972656 128.691406 896.246094 236.621094 909.429688 235.125 Z M 909.429688 235.125 " fill-opacity="1" fill-rule="nonzero"/><path fill="#ed8115" d="M 791.171875 1144.15625 C 830.335938 1163.664062 858.292969 1196.382812 858.292969 1220.410156 C 858.292969 1244.886719 829.292969 1276.195312 788.96875 1294.09375 C 787.445312 1294.773438 785.917969 1295.421875 784.367188 1296.070312 C 748.671875 1246.042969 750.253906 1192.714844 783.292969 1140.484375 C 785.976562 1141.644531 788.601562 1142.855469 791.171875 1144.15625 Z M 791.171875 1144.15625 " fill-opacity="1" fill-rule="nonzero"/><path fill="#ed8115" d="M 783.292969 1140.484375 C 773.929688 1136.3125 764.238281 1133.136719 754.222656 1130.953125 C 744.207031 1128.769531 734.074219 1127.628906 723.824219 1127.527344 C 713.402344 1127.613281 703.109375 1128.800781 692.941406 1131.085938 C 682.773438 1133.367188 672.964844 1136.699219 663.507812 1141.078125 L 663.507812 1141.050781 C 653.085938 1124.476562 654.554688 1103.191406 666.527344 1094.242188 C 719.671875 1054.378906 773.777344 1126.199219 791.171875 1144.128906 L 791.171875 1144.15625 C 788.601562 1142.855469 785.976562 1141.644531 783.292969 1140.484375 Z M 783.292969 1140.484375 " fill-opacity="1" fill-rule="nonzero"/><path fill="#ed8115" d="M 784.367188 1296.070312 C 785.917969 1295.421875 787.445312 1294.773438 788.96875 1294.09375 C 769.539062 1315.15625 717.609375 1379.976562 666.527344 1341.664062 C 654.78125 1332.855469 653.144531 1312.164062 662.96875 1295.703125 C 672.585938 1299.828125 682.515625 1302.960938 692.761719 1305.097656 C 703.003906 1307.238281 713.359375 1308.339844 723.824219 1308.40625 C 734.21875 1308.328125 744.507812 1307.25 754.691406 1305.171875 C 764.878906 1303.097656 774.769531 1300.0625 784.367188 1296.070312 Z M 784.367188 1296.070312 " fill-opacity="1" fill-rule="nonzero"/><path fill="#f3ce7d" d="M 783.292969 1140.484375 C 750.253906 1192.714844 748.671875 1246.042969 784.367188 1296.070312 C 774.769531 1300.0625 764.878906 1303.097656 754.691406 1305.171875 C 744.507812 1307.25 734.21875 1308.328125 723.824219 1308.40625 C 713.359375 1308.339844 703.003906 1307.238281 692.761719 1305.097656 C 682.519531 1302.960938 672.585938 1299.828125 662.96875 1295.703125 C 636.171875 1284.382812 614.316406 1266.824219 602.203125 1249.035156 C 595.511719 1239.238281 591.78125 1229.359375 591.78125 1220.410156 C 591.78125 1210.359375 596.46875 1198.8125 604.742188 1187.351562 C 617.339844 1169.847656 638.234375 1152.539062 663.507812 1141.078125 C 672.964844 1136.699219 682.773438 1133.367188 692.941406 1131.085938 C 703.109375 1128.800781 713.402344 1127.613281 723.824219 1127.527344 C 734.074219 1127.628906 744.207031 1128.769531 754.222656 1130.953125 C 764.238281 1133.136719 773.929688 1136.3125 783.292969 1140.484375 Z M 783.292969 1140.484375 " fill-opacity="1" fill-rule="nonzero"/><path fill="#ed8115" d="M 604.742188 1187.351562 C 596.46875 1198.8125 591.78125 1210.359375 591.78125 1220.410156 C 591.78125 1229.359375 595.511719 1239.238281 602.203125 1249.035156 C 593.902344 1266.992188 579.21875 1279.074219 564.898438 1279.074219 C 543.296875 1279.074219 533.105469 1251.691406 533.105469 1217.953125 C 533.105469 1184.21875 543.296875 1156.859375 564.898438 1156.859375 C 579.386719 1156.859375 596.46875 1169.113281 604.742188 1187.351562 Z M 604.742188 1187.351562 " fill-opacity="1" fill-rule="nonzero"/><path fill="#ed8115" d="M 500.941406 856.984375 C 540.105469 876.492188 568.0625 909.210938 568.0625 933.238281 C 568.0625 957.714844 539.0625 989.023438 498.738281 1006.921875 C 497.214844 1007.597656 495.6875 1008.25 494.136719 1008.898438 C 458.441406 958.871094 460.023438 905.515625 493.035156 853.285156 C 495.71875 854.472656 498.371094 855.683594 500.941406 856.984375 Z M 500.941406 856.984375 " fill-opacity="1" fill-rule="nonzero"/><path fill="#ed8115" d="M 493.035156 853.285156 C 483.675781 849.117188 473.988281 845.945312 463.976562 843.769531 C 453.96875 841.589844 443.839844 840.453125 433.59375 840.355469 C 423.171875 840.441406 412.878906 841.628906 402.710938 843.914062 C 392.546875 846.195312 382.734375 849.527344 373.277344 853.90625 L 373.25 853.878906 C 362.859375 837.277344 364.324219 816.019531 376.300781 807.042969 C 429.441406 767.207031 483.519531 839.027344 500.941406 856.957031 L 500.941406 856.984375 C 498.371094 855.683594 495.71875 854.472656 493.035156 853.285156 Z M 493.035156 853.285156 " fill-opacity="1" fill-rule="nonzero"/><path fill="#ed8115" d="M 494.136719 1008.898438 C 495.6875 1008.25 497.214844 1007.597656 498.738281 1006.921875 C 479.3125 1027.953125 427.351562 1092.773438 376.300781 1054.492188 C 364.523438 1045.683594 362.914062 1024.988281 372.742188 1008.53125 C 382.359375 1012.65625 392.289062 1015.789062 402.53125 1017.925781 C 412.773438 1020.066406 423.128906 1021.167969 433.59375 1021.234375 C 443.988281 1021.152344 454.277344 1020.074219 464.460938 1018 C 474.648438 1015.925781 484.539062 1012.890625 494.136719 1008.898438 Z M 494.136719 1008.898438 " fill-opacity="1" fill-rule="nonzero"/><path fill="#f3ce7d" d="M 493.035156 853.285156 C 460.023438 905.515625 458.441406 958.871094 494.136719 1008.898438 C 484.539062 1012.890625 474.648438 1015.925781 464.460938 1018 C 454.277344 1020.074219 443.988281 1021.152344 433.59375 1021.234375 C 423.128906 1021.167969 412.773438 1020.066406 402.53125 1017.925781 C 392.289062 1015.789062 382.359375 1012.65625 372.742188 1008.53125 C 345.941406 997.210938 324.085938 979.648438 311.972656 961.863281 C 305.28125 952.066406 301.554688 942.1875 301.554688 933.238281 C 301.554688 923.1875 306.242188 911.640625 314.515625 900.179688 C 327.109375 882.675781 348.003906 865.367188 373.277344 853.90625 C 382.734375 849.527344 392.546875 846.195312 402.710938 843.914062 C 412.878906 841.628906 423.171875 840.441406 433.59375 840.355469 C 443.839844 840.453125 453.96875 841.589844 463.976562 843.769531 C 473.988281 845.945312 483.675781 849.117188 493.035156 853.285156 Z M 493.035156 853.285156 " fill-opacity="1" fill-rule="nonzero"/><path fill="#ed8115" d="M 314.515625 900.179688 C 306.242188 911.640625 301.554688 923.1875 301.554688 933.238281 C 301.554688 942.1875 305.28125 952.066406 311.972656 961.863281 C 303.671875 979.820312 288.988281 991.902344 274.671875 991.902344 C 253.039062 991.902344 242.875 964.519531 242.875 930.78125 C 242.875 897.042969 253.039062 869.6875 274.671875 869.6875 C 289.128906 869.6875 306.242188 881.941406 314.515625 900.179688 Z M 314.515625 900.179688 " fill-opacity="1" fill-rule="nonzero"/><path fill="#7bb7ac" d="M 148.191406 803.683594 C 147.289062 789.480469 146.835938 775.148438 146.835938 760.683594 C 146.835938 750.035156 147.085938 739.390625 147.585938 728.753906 C 148.089844 718.117188 148.839844 707.496094 149.84375 696.894531 C 150.84375 686.292969 152.097656 675.71875 153.597656 665.175781 C 155.097656 654.632812 156.847656 644.128906 158.84375 633.667969 C 160.839844 623.207031 163.078125 612.800781 165.566406 602.445312 C 168.054688 592.089844 170.785156 581.796875 173.757812 571.570312 C 176.726562 561.34375 179.941406 551.195312 183.390625 541.117188 C 186.84375 531.042969 190.53125 521.054688 194.453125 511.152344 C 198.375 501.253906 202.527344 491.449219 206.914062 481.742188 C 211.296875 472.039062 215.910156 462.441406 220.746094 452.953125 C 225.582031 443.464844 230.640625 434.097656 235.921875 424.847656 C 241.199219 415.597656 246.695312 406.476562 252.40625 397.488281 C 258.113281 388.496094 264.03125 379.644531 270.160156 370.933594 C 276.285156 362.222656 282.617188 353.660156 289.144531 345.246094 C 295.675781 336.832031 302.402344 328.578125 309.324219 320.484375 C 316.242188 312.386719 323.351562 304.457031 330.644531 296.699219 C 337.9375 288.9375 345.410156 281.351562 353.0625 273.941406 C 360.714844 266.535156 368.539062 259.308594 376.53125 252.269531 C 384.523438 245.230469 392.679688 238.382812 400.992188 231.726562 C 409.308594 225.070312 417.777344 218.617188 426.398438 212.359375 C 435.019531 206.105469 443.78125 200.054688 452.6875 194.210938 C 461.589844 188.367188 470.628906 182.738281 479.800781 177.320312 C 488.972656 171.90625 498.265625 166.707031 507.683594 161.726562 C 517.097656 156.75 526.628906 151.996094 536.265625 147.464844 C 545.90625 142.9375 555.648438 138.636719 565.492188 134.566406 C 575.335938 130.496094 585.269531 126.660156 595.292969 123.058594 C 605.320312 119.457031 615.421875 116.09375 625.605469 112.96875 C 635.789062 109.84375 646.039062 106.957031 656.359375 104.316406 C 666.675781 101.675781 677.054688 99.277344 687.484375 97.125 C 697.917969 94.972656 708.394531 93.066406 718.914062 91.40625 C 729.4375 89.746094 739.992188 88.335938 750.582031 87.175781 C 761.171875 86.015625 771.78125 85.101562 782.410156 84.441406 C 768.332031 83.5625 754.140625 83.125 739.835938 83.125 C 730.171875 83.109375 720.515625 83.304688 710.863281 83.703125 C 701.210938 84.101562 691.570312 84.710938 681.941406 85.523438 C 672.316406 86.335938 662.710938 87.355469 653.125 88.582031 C 643.542969 89.808594 633.992188 91.242188 624.46875 92.875 C 614.949219 94.511719 605.464844 96.351562 596.023438 98.398438 C 586.578125 100.441406 577.183594 102.683594 567.839844 105.132812 C 558.492188 107.578125 549.203125 110.226562 539.96875 113.070312 C 530.738281 115.917969 521.570312 118.957031 512.46875 122.199219 C 503.367188 125.4375 494.339844 128.871094 485.382812 132.496094 C 476.429688 136.125 467.558594 139.941406 458.765625 143.949219 C 449.976562 147.957031 441.277344 152.152344 432.664062 156.535156 C 424.054688 160.914062 415.542969 165.480469 407.128906 170.226562 C 398.714844 174.972656 390.40625 179.898438 382.203125 185.003906 C 374 190.105469 365.910156 195.382812 357.933594 200.835938 C 349.960938 206.285156 342.105469 211.90625 334.371094 217.695312 C 326.636719 223.480469 319.027344 229.433594 311.550781 235.546875 L 63.480469 803.683594 C 85.644531 1157.875 380 1438.246094 739.835938 1438.246094 C 754.078125 1438.246094 768.207031 1437.761719 782.238281 1436.894531 C 441.894531 1415.941406 169.484375 1143.886719 148.191406 803.683594 Z M 148.191406 803.683594 " fill-opacity="1" fill-rule="nonzero"/><path fill="#81c83d" d="M 311.550781 235.546875 C 331.824219 232.839844 627.417969 195.628906 621.660156 331.421875 C 616.179688 459.792969 466.066406 406.207031 457.085938 454.0625 C 448.109375 501.914062 528.898438 528.847656 531.890625 606.625 C 534.207031 666.703125 454.09375 729.261719 406.203125 723.277344 C 352.042969 716.53125 268.9375 689.710938 205.742188 702.359375 C 145.90625 714.328125 63.480469 803.683594 63.480469 803.683594 C 62.574219 789.480469 62.125 775.148438 62.125 760.683594 C 62.109375 748.164062 62.445312 735.648438 63.128906 723.148438 C 63.8125 710.644531 64.84375 698.167969 66.21875 685.722656 C 67.59375 673.273438 69.316406 660.875 71.378906 648.523438 C 73.445312 636.175781 75.851562 623.890625 78.601562 611.671875 C 81.347656 599.457031 84.433594 587.324219 87.855469 575.277344 C 91.277344 563.230469 95.03125 551.289062 99.117188 539.453125 C 103.199219 527.617188 107.613281 515.902344 112.347656 504.308594 C 117.085938 492.714844 122.140625 481.265625 127.511719 469.953125 C 132.886719 458.640625 138.566406 447.488281 144.558594 436.492188 C 150.550781 425.496094 156.847656 414.671875 163.441406 404.027344 C 170.035156 393.378906 176.917969 382.925781 184.09375 372.660156 C 191.265625 362.394531 198.722656 352.339844 206.457031 342.488281 C 214.1875 332.640625 222.191406 323.011719 230.457031 313.605469 C 238.726562 304.199219 247.25 295.03125 256.027344 286.097656 C 264.808594 277.164062 273.828125 268.484375 283.085938 260.050781 C 292.347656 251.621094 301.835938 243.453125 311.550781 235.546875 Z M 311.550781 235.546875 " fill-opacity="1" fill-rule="nonzero"/><path fill="#6a9e33" d="M 396.261719 235.546875 C 398.976562 233.335938 401.722656 231.164062 404.46875 228.992188 C 373.378906 229.492188 342.402344 231.679688 311.550781 235.546875 C 301.835938 243.453125 292.347656 251.621094 283.085938 260.050781 C 273.828125 268.484375 264.808594 277.164062 256.027344 286.097656 C 247.25 295.03125 238.726562 304.199219 230.457031 313.605469 C 222.191406 323.011719 214.1875 332.640625 206.457031 342.488281 C 198.722656 352.339844 191.265625 362.394531 184.09375 372.660156 C 176.917969 382.925781 170.035156 393.378906 163.441406 404.027344 C 156.847656 414.671875 150.550781 425.496094 144.558594 436.492188 C 138.566406 447.488281 132.886719 458.640625 127.511719 469.953125 C 122.140625 481.265625 117.085938 492.714844 112.347656 504.308594 C 107.613281 515.902344 103.199219 527.617188 99.117188 539.453125 C 95.03125 551.289062 91.277344 563.230469 87.855469 575.277344 C 84.433594 587.324219 81.347656 599.457031 78.601562 611.671875 C 75.851562 623.890625 73.445312 636.175781 71.378906 648.523438 C 69.316406 660.875 67.59375 673.273438 66.21875 685.722656 C 64.84375 698.167969 63.8125 710.644531 63.128906 723.144531 C 62.445312 735.648438 62.109375 748.164062 62.125 760.683594 C 62.125 775.140625 62.574219 789.472656 63.480469 803.683594 C 63.480469 803.683594 103.242188 760.59375 147.578125 730.253906 C 148.101562 718.378906 148.9375 706.527344 150.082031 694.695312 C 151.230469 682.863281 152.6875 671.070312 154.457031 659.316406 C 156.226562 647.5625 158.304688 635.863281 160.691406 624.21875 C 163.078125 612.570312 165.769531 600.996094 168.765625 589.496094 C 171.761719 577.992188 175.0625 566.574219 178.660156 555.246094 C 182.257812 543.917969 186.15625 532.691406 190.347656 521.566406 C 194.539062 510.445312 199.019531 499.4375 203.789062 488.550781 C 208.5625 477.664062 213.617188 466.910156 218.957031 456.289062 C 224.296875 445.667969 229.910156 435.195312 235.800781 424.871094 C 241.695312 414.546875 247.851562 404.382812 254.28125 394.382812 C 260.707031 384.382812 267.394531 374.558594 274.339844 364.910156 C 281.285156 355.261719 288.480469 345.804688 295.925781 336.539062 C 303.371094 327.269531 311.054688 318.203125 318.976562 309.339844 C 326.898438 300.476562 335.050781 291.828125 343.429688 283.394531 C 351.808594 274.960938 360.402344 266.757812 369.214844 258.777344 C 378.027344 250.796875 387.042969 243.054688 396.261719 235.546875 Z M 396.261719 235.546875 " fill-opacity="1" fill-rule="nonzero"/><path fill="#284268" d="M 143.75 1204.277344 C 143.207031 1203.523438 142.597656 1202.832031 141.921875 1202.195312 C 141.242188 1201.5625 140.511719 1201 139.722656 1200.511719 C 138.933594 1200.019531 138.105469 1199.613281 137.238281 1199.289062 C 136.367188 1198.960938 135.476562 1198.722656 134.558594 1198.574219 C 133.644531 1198.421875 132.722656 1198.363281 131.796875 1198.394531 C 130.867188 1198.425781 129.953125 1198.546875 129.050781 1198.757812 C 128.144531 1198.972656 127.273438 1199.269531 126.425781 1199.652344 C 125.582031 1200.035156 124.785156 1200.5 124.03125 1201.042969 C 123.277344 1201.582031 122.582031 1202.191406 121.949219 1202.871094 C 121.316406 1203.550781 120.757812 1204.28125 120.269531 1205.070312 C 119.78125 1205.859375 119.371094 1206.691406 119.046875 1207.558594 C 118.722656 1208.425781 118.484375 1209.320312 118.335938 1210.234375 C 118.1875 1211.152344 118.128906 1212.074219 118.164062 1213 C 118.195312 1213.925781 118.316406 1214.84375 118.53125 1215.746094 C 118.746094 1216.648438 119.042969 1217.519531 119.429688 1218.363281 C 119.816406 1219.210938 120.277344 1220.007812 120.820312 1220.761719 C 125.675781 1227.507812 130.703125 1234.230469 135.734375 1240.738281 C 136.300781 1241.46875 136.933594 1242.140625 137.636719 1242.75 C 138.335938 1243.359375 139.085938 1243.894531 139.890625 1244.351562 C 140.695312 1244.8125 141.539062 1245.191406 142.417969 1245.484375 C 143.296875 1245.78125 144.199219 1245.984375 145.117188 1246.101562 C 146.039062 1246.21875 146.960938 1246.246094 147.886719 1246.183594 C 148.8125 1246.117188 149.722656 1245.964844 150.617188 1245.71875 C 151.511719 1245.476562 152.375 1245.148438 153.203125 1244.734375 C 154.035156 1244.320312 154.816406 1243.828125 155.546875 1243.261719 C 156.28125 1242.695312 156.953125 1242.058594 157.5625 1241.359375 C 158.167969 1240.660156 158.703125 1239.90625 159.164062 1239.101562 C 159.625 1238.296875 160 1237.457031 160.292969 1236.574219 C 160.589844 1235.695312 160.792969 1234.796875 160.910156 1233.875 C 161.027344 1232.957031 161.054688 1232.035156 160.988281 1231.109375 C 160.921875 1230.183594 160.769531 1229.273438 160.523438 1228.378906 C 160.28125 1227.484375 159.949219 1226.625 159.535156 1225.792969 C 159.121094 1224.964844 158.628906 1224.183594 158.0625 1223.449219 C 153.222656 1217.207031 148.40625 1210.753906 143.75 1204.277344 Z M 143.75 1204.277344 " fill-opacity="1" fill-rule="nonzero"/><path fill="#284268" d="M 410.863281 1452.359375 C 411.667969 1452.363281 412.464844 1452.292969 413.257812 1452.160156 C 414.050781 1452.023438 414.828125 1451.820312 415.585938 1451.550781 C 416.34375 1451.285156 417.074219 1450.953125 417.777344 1450.558594 C 418.480469 1450.164062 419.144531 1449.714844 419.769531 1449.210938 C 420.394531 1448.703125 420.972656 1448.144531 421.5 1447.539062 C 422.03125 1446.933594 422.503906 1446.289062 422.925781 1445.601562 C 423.34375 1444.914062 423.703125 1444.199219 424 1443.449219 C 424.296875 1442.703125 424.527344 1441.9375 424.691406 1441.148438 C 424.859375 1440.359375 424.957031 1439.566406 424.984375 1438.761719 C 425.015625 1437.957031 424.976562 1437.15625 424.867188 1436.359375 C 424.761719 1435.5625 424.585938 1434.777344 424.34375 1434.011719 C 424.101562 1433.242188 423.796875 1432.503906 423.429688 1431.789062 C 423.0625 1431.070312 422.636719 1430.394531 422.152344 1429.75 C 421.667969 1429.109375 421.132812 1428.511719 420.546875 1427.960938 C 419.960938 1427.410156 419.332031 1426.910156 418.660156 1426.46875 C 417.988281 1426.023438 417.285156 1425.640625 416.546875 1425.316406 C 395.84375 1416.25 375.65625 1406.148438 355.992188 1395.011719 C 336.324219 1383.871094 317.277344 1371.757812 298.851562 1358.667969 C 280.429688 1345.578125 262.722656 1331.578125 245.734375 1316.671875 C 228.746094 1301.765625 212.566406 1286.03125 197.191406 1269.464844 C 196.558594 1268.785156 195.867188 1268.175781 195.117188 1267.632812 C 194.363281 1267.089844 193.566406 1266.628906 192.722656 1266.242188 C 191.878906 1265.859375 191.007812 1265.558594 190.105469 1265.34375 C 189.203125 1265.132812 188.289062 1265.007812 187.359375 1264.976562 C 186.433594 1264.941406 185.515625 1265 184.597656 1265.148438 C 183.683594 1265.296875 182.792969 1265.53125 181.921875 1265.855469 C 181.054688 1266.179688 180.226562 1266.585938 179.4375 1267.074219 C 178.648438 1267.558594 177.914062 1268.117188 177.234375 1268.75 C 176.558594 1269.382812 175.945312 1270.074219 175.402344 1270.824219 C 174.863281 1271.578125 174.398438 1272.375 174.011719 1273.21875 C 173.628906 1274.0625 173.328125 1274.933594 173.113281 1275.835938 C 172.902344 1276.738281 172.777344 1277.652344 172.746094 1278.578125 C 172.710938 1279.503906 172.769531 1280.425781 172.917969 1281.339844 C 173.066406 1282.253906 173.300781 1283.148438 173.625 1284.015625 C 173.949219 1284.882812 174.355469 1285.710938 174.84375 1286.5 C 175.328125 1287.289062 175.890625 1288.023438 176.519531 1288.703125 C 192.546875 1305.972656 209.417969 1322.375 227.125 1337.914062 C 244.835938 1353.453125 263.296875 1368.042969 282.503906 1381.691406 C 301.710938 1395.335938 321.5625 1407.964844 342.066406 1419.574219 C 362.570312 1431.183594 383.613281 1441.714844 405.195312 1451.167969 C 407 1451.960938 408.890625 1452.359375 410.863281 1452.359375 Z M 410.863281 1452.359375 " fill-opacity="1" fill-rule="nonzero"/><path fill="#284268" d="M 697.5 289.054688 L 744.765625 289.054688 C 741.949219 290.453125 739.355469 292.183594 736.984375 294.246094 C 734.609375 296.308594 732.53125 298.632812 730.753906 301.222656 C 724.128906 310.992188 722.675781 323.96875 726.4375 339.796875 C 726.621094 340.5625 726.867188 341.308594 727.171875 342.035156 C 727.480469 342.761719 727.847656 343.457031 728.269531 344.121094 C 728.695312 344.785156 729.171875 345.410156 729.699219 345.996094 C 730.230469 346.582031 730.800781 347.117188 731.421875 347.605469 C 732.039062 348.09375 732.695312 348.527344 733.386719 348.90625 C 734.078125 349.285156 734.796875 349.605469 735.539062 349.863281 C 736.285156 350.121094 737.046875 350.316406 737.824219 350.449219 C 738.601562 350.582031 739.382812 350.644531 740.171875 350.644531 L 993.363281 350.644531 C 994.179688 350.644531 994.992188 350.574219 995.796875 350.433594 C 996.601562 350.292969 997.386719 350.085938 998.15625 349.808594 C 998.925781 349.53125 999.664062 349.1875 1000.371094 348.785156 C 1001.082031 348.378906 1001.75 347.914062 1002.378906 347.394531 C 1003.007812 346.871094 1003.585938 346.300781 1004.117188 345.675781 C 1004.644531 345.054688 1005.117188 344.390625 1005.53125 343.6875 C 1005.945312 342.984375 1006.296875 342.25 1006.582031 341.484375 C 1006.871094 340.71875 1007.089844 339.9375 1007.238281 339.132812 C 1007.742188 336.453125 1011.699219 312.484375 996.210938 295.847656 C 988.164062 287.203125 976.929688 282.671875 962.796875 282.203125 C 963.667969 280.753906 964.257812 279.199219 964.570312 277.539062 C 965.070312 274.859375 969.03125 250.890625 953.542969 234.253906 C 943.882812 223.882812 929.71875 219.34375 911.339844 220.761719 C 908.800781 218.953125 904.496094 215.3125 900.890625 212.269531 C 880.371094 194.929688 846.046875 165.886719 807.027344 171.644531 C 783.890625 175.054688 763.324219 190.21875 745.886719 216.734375 C 741.136719 218.265625 736.28125 219.28125 731.316406 219.777344 C 716.59375 221.933594 698.277344 224.613281 688.078125 239.636719 C 681.449219 249.40625 680 262.382812 683.765625 278.207031 C 683.949219 278.972656 684.191406 279.71875 684.5 280.445312 C 684.808594 281.171875 685.171875 281.867188 685.597656 282.53125 C 686.023438 283.195312 686.5 283.820312 687.027344 284.40625 C 687.554688 284.988281 688.128906 285.527344 688.75 286.015625 C 689.367188 286.503906 690.023438 286.9375 690.714844 287.316406 C 691.40625 287.695312 692.125 288.011719 692.867188 288.273438 C 693.613281 288.53125 694.375 288.726562 695.152344 288.855469 C 695.929688 288.988281 696.710938 289.054688 697.5 289.054688 Z M 911.042969 249.144531 C 918.347656 248.296875 928.035156 248.378906 932.8125 253.429688 C 934.671875 255.570312 935.867188 258.035156 936.398438 260.820312 L 927.601562 260.820312 C 922.214844 256.648438 916.636719 252.757812 910.863281 249.148438 C 910.921875 249.140625 910.980469 249.152344 911.042969 249.144531 Z M 925.339844 295.429688 C 937.808594 305.964844 944.667969 311.765625 953.714844 310.742188 C 961.007812 309.894531 970.703125 309.972656 975.484375 315.023438 C 977.34375 317.167969 978.539062 319.628906 979.070312 322.417969 L 752.644531 322.417969 C 752.660156 320.503906 753.152344 318.722656 754.121094 317.074219 C 757.335938 312.335938 768.835938 310.65625 778.078125 309.304688 C 791.125 307.398438 804.625 305.425781 811.75 294.453125 C 824.679688 274.574219 838.832031 263.375 853.824219 261.164062 C 880.226562 257.28125 907.363281 280.238281 925.339844 295.429688 Z M 711.445312 255.484375 C 714.660156 250.746094 726.160156 249.0625 735.402344 247.710938 C 748.453125 245.804688 761.949219 243.832031 769.074219 232.859375 C 782.007812 212.980469 796.15625 201.78125 811.148438 199.574219 C 837.566406 195.6875 864.695312 218.644531 882.671875 233.832031 C 884.171875 235.097656 885.585938 236.289062 886.9375 237.421875 C 881 235.203125 874.878906 233.738281 868.578125 233.03125 C 862.28125 232.320312 855.988281 232.390625 849.707031 233.234375 C 832.265625 235.804688 816.285156 245.066406 802.003906 260.820312 L 709.976562 260.820312 C 709.992188 258.910156 710.480469 257.132812 711.445312 255.484375 Z M 711.445312 255.484375 " fill-opacity="1" fill-rule="nonzero"/><path fill="#284268" d="M 518.996094 1217.960938 C 518.996094 1264.363281 536.582031 1293.1875 564.898438 1293.1875 C 578.910156 1293.1875 592.894531 1285.566406 603.675781 1272.847656 C 609.714844 1278.964844 616.230469 1284.523438 623.222656 1289.527344 C 630.054688 1294.429688 637.210938 1298.804688 644.683594 1302.660156 C 639.054688 1322.066406 643.882812 1342.339844 658.054688 1352.960938 C 660.992188 1355.289062 664.097656 1357.363281 667.378906 1359.179688 C 670.660156 1361 674.066406 1362.535156 677.597656 1363.789062 C 681.132812 1365.042969 684.746094 1365.996094 688.4375 1366.652344 C 692.128906 1367.3125 695.847656 1367.660156 699.597656 1367.703125 C 741.660156 1367.703125 778.558594 1326.71875 794.921875 1308.539062 C 795.699219 1307.679688 796.433594 1306.863281 797.140625 1306.085938 C 841.230469 1285.839844 872.402344 1250.441406 872.402344 1220.40625 C 872.402344 1189.988281 841.847656 1153.835938 799.414062 1132.300781 C 798.078125 1130.855469 796.582031 1129.207031 794.925781 1127.359375 C 773.308594 1103.359375 715.886719 1039.574219 658.054688 1082.9375 C 643.671875 1093.722656 638.984375 1114.882812 645.132812 1134.601562 C 630.738281 1142.46875 617.757812 1152.21875 606.195312 1163.851562 C 594.898438 1150.890625 579.652344 1142.734375 564.894531 1142.734375 C 536.582031 1142.734375 518.996094 1171.558594 518.996094 1217.960938 Z M 675 1330.375 C 671.511719 1327.757812 669.882812 1321.113281 671.113281 1313.789062 C 688.214844 1319.503906 705.785156 1322.414062 723.816406 1322.519531 C 729.621094 1322.503906 735.40625 1322.1875 741.179688 1321.566406 C 719.160156 1339.011719 696.742188 1346.679688 675 1330.375 Z M 788.824219 1158.933594 C 821.726562 1176.679688 844.171875 1203.949219 844.171875 1220.40625 C 844.171875 1231.160156 833.382812 1249.59375 809.269531 1266.523438 C 802.992188 1270.921875 796.417969 1274.828125 789.546875 1278.238281 C 766.6875 1240.414062 766.449219 1200.378906 788.824219 1158.933594 Z M 675 1105.523438 C 696.808594 1089.167969 719.292969 1096.925781 741.359375 1114.480469 C 735.527344 1113.78125 729.679688 1113.421875 723.804688 1113.40625 C 714.832031 1113.46875 705.929688 1114.292969 697.097656 1115.882812 C 688.265625 1117.46875 679.632812 1119.796875 671.203125 1122.863281 C 669.714844 1115.253906 671.328125 1108.277344 675 1105.523438 Z M 723.816406 1141.636719 C 737.113281 1141.707031 750.085938 1143.777344 762.742188 1147.847656 C 737.609375 1195.925781 737.648438 1244.011719 762.882812 1288.59375 C 750.125 1292.3125 737.105469 1294.210938 723.816406 1294.285156 C 656.894531 1294.285156 605.910156 1245.042969 605.910156 1220.402344 C 605.910156 1193.789062 659.292969 1141.636719 723.816406 1141.636719 Z M 588.253906 1186.746094 C 585.019531 1191.785156 582.503906 1197.15625 580.707031 1202.867188 C 578.914062 1208.578125 577.902344 1214.425781 577.671875 1220.40625 C 577.820312 1225.515625 578.59375 1230.523438 579.996094 1235.4375 C 581.398438 1240.351562 583.382812 1245.015625 585.953125 1249.429688 C 579.992188 1258.8125 571.902344 1264.957031 564.898438 1264.957031 C 554.664062 1264.957031 547.234375 1245.195312 547.234375 1217.960938 C 547.234375 1190.730469 554.664062 1170.96875 564.898438 1170.96875 C 571.667969 1170.96875 581.539062 1176.863281 588.253906 1186.746094 Z M 588.253906 1186.746094 " fill-opacity="1" fill-rule="nonzero"/><path fill="#284268" d="M 807.15625 1213.109375 C 808.082031 1213.109375 809 1213.019531 809.910156 1212.835938 C 810.820312 1212.65625 811.703125 1212.390625 812.558594 1212.035156 C 813.414062 1211.679688 814.230469 1211.246094 815 1210.730469 C 815.769531 1210.214844 816.484375 1209.628906 817.140625 1208.972656 C 817.796875 1208.320312 818.378906 1207.605469 818.894531 1206.835938 C 819.410156 1206.066406 819.847656 1205.25 820.199219 1204.394531 C 820.554688 1203.539062 820.824219 1202.65625 821.003906 1201.746094 C 821.183594 1200.835938 821.273438 1199.917969 821.273438 1198.992188 C 821.273438 1198.066406 821.183594 1197.148438 821.003906 1196.238281 C 820.824219 1195.332031 820.554688 1194.449219 820.199219 1193.589844 C 819.847656 1192.734375 819.410156 1191.921875 818.894531 1191.152344 C 818.378906 1190.378906 817.796875 1189.667969 817.140625 1189.011719 C 816.484375 1188.355469 815.769531 1187.769531 815 1187.257812 C 814.230469 1186.742188 813.414062 1186.304688 812.558594 1185.953125 C 811.703125 1185.597656 810.820312 1185.328125 809.910156 1185.148438 C 809 1184.96875 808.082031 1184.878906 807.15625 1184.878906 L 796.5625 1184.878906 C 795.632812 1184.878906 794.714844 1184.96875 793.808594 1185.148438 C 792.898438 1185.328125 792.015625 1185.597656 791.15625 1185.953125 C 790.300781 1186.304688 789.488281 1186.742188 788.71875 1187.257812 C 787.945312 1187.769531 787.234375 1188.355469 786.578125 1189.011719 C 785.921875 1189.667969 785.335938 1190.378906 784.820312 1191.152344 C 784.308594 1191.921875 783.871094 1192.734375 783.515625 1193.589844 C 783.164062 1194.449219 782.894531 1195.332031 782.714844 1196.238281 C 782.53125 1197.148438 782.441406 1198.066406 782.441406 1198.992188 C 782.441406 1199.917969 782.53125 1200.835938 782.714844 1201.746094 C 782.894531 1202.65625 783.164062 1203.539062 783.515625 1204.394531 C 783.871094 1205.25 784.308594 1206.066406 784.820312 1206.835938 C 785.335938 1207.605469 785.921875 1208.320312 786.578125 1208.972656 C 787.234375 1209.628906 787.945312 1210.214844 788.71875 1210.730469 C 789.488281 1211.246094 790.300781 1211.679688 791.15625 1212.035156 C 792.015625 1212.390625 792.898438 1212.65625 793.808594 1212.835938 C 794.714844 1213.019531 795.632812 1213.109375 796.5625 1213.109375 Z M 807.15625 1213.109375 " fill-opacity="1" fill-rule="nonzero"/><path fill="#284268" d="M 313.441406 985.667969 C 319.480469 991.789062 325.996094 997.347656 332.988281 1002.355469 C 339.820312 1007.253906 346.976562 1011.628906 354.449219 1015.480469 C 348.816406 1034.890625 353.648438 1055.160156 367.820312 1065.78125 C 370.753906 1068.113281 373.863281 1070.1875 377.144531 1072.003906 C 380.421875 1073.820312 383.828125 1075.355469 387.363281 1076.609375 C 390.898438 1077.863281 394.507812 1078.820312 398.203125 1079.476562 C 401.894531 1080.132812 405.613281 1080.484375 409.363281 1080.523438 C 451.4375 1080.523438 488.320312 1039.539062 504.6875 1021.363281 C 505.460938 1020.515625 506.195312 1019.683594 506.90625 1018.90625 C 550.996094 998.660156 582.167969 963.265625 582.167969 933.230469 C 582.167969 902.8125 551.613281 866.660156 509.179688 845.125 C 507.839844 843.679688 506.355469 842.019531 504.6875 840.179688 C 483.074219 816.183594 425.648438 752.398438 367.820312 795.761719 C 353.433594 806.542969 348.75 827.703125 354.898438 847.425781 C 340.503906 855.289062 327.523438 865.039062 315.960938 876.671875 C 304.664062 863.714844 289.417969 855.558594 274.660156 855.558594 C 246.34375 855.558594 228.753906 884.382812 228.753906 930.785156 C 228.753906 977.183594 246.347656 1006.019531 274.664062 1006.019531 C 288.679688 1006.019531 302.660156 998.394531 313.441406 985.667969 Z M 384.765625 1043.195312 C 381.273438 1040.578125 379.644531 1033.933594 380.875 1026.613281 C 397.980469 1032.328125 415.550781 1035.238281 433.582031 1035.34375 C 439.386719 1035.328125 445.175781 1035.011719 450.945312 1034.386719 C 428.933594 1051.839844 406.511719 1059.507812 384.765625 1043.195312 Z M 498.589844 871.761719 C 531.492188 889.507812 553.933594 916.773438 553.933594 933.230469 C 553.933594 943.984375 543.144531 962.417969 519.035156 979.34375 C 512.757812 983.746094 506.179688 987.652344 499.3125 991.0625 C 476.457031 953.226562 476.214844 913.203125 498.59375 871.761719 Z M 384.765625 818.34375 C 406.570312 801.988281 429.054688 809.75 451.125 827.304688 C 445.292969 826.601562 439.445312 826.246094 433.574219 826.226562 C 424.601562 826.289062 415.699219 827.117188 406.867188 828.703125 C 398.035156 830.292969 389.402344 832.617188 380.96875 835.6875 C 379.480469 828.078125 381.097656 821.101562 384.765625 818.347656 Z M 433.582031 854.460938 C 446.875 854.527344 459.851562 856.597656 472.503906 860.671875 C 447.375 908.746094 447.414062 956.832031 472.648438 1001.414062 C 459.890625 1005.132812 446.871094 1007.027344 433.582031 1007.101562 C 366.660156 1007.101562 315.675781 957.863281 315.675781 933.21875 C 315.675781 906.609375 369.070312 854.460938 433.585938 854.460938 Z M 257 930.785156 C 257 903.550781 264.429688 883.789062 274.664062 883.789062 C 281.441406 883.789062 291.308594 889.6875 298.019531 899.570312 C 294.785156 904.609375 292.269531 909.980469 290.476562 915.691406 C 288.679688 921.402344 287.667969 927.246094 287.441406 933.230469 C 287.585938 938.335938 288.359375 943.347656 289.761719 948.257812 C 291.164062 953.171875 293.152344 957.835938 295.722656 962.25 C 289.761719 971.636719 281.671875 977.777344 274.664062 977.777344 C 264.429688 977.785156 257 958.023438 257 930.785156 Z M 257 930.785156 " fill-opacity="1" fill-rule="nonzero"/><path fill="#284268" d="M 517.625 925.929688 C 518.550781 925.929688 519.46875 925.839844 520.378906 925.660156 C 521.289062 925.480469 522.171875 925.210938 523.027344 924.855469 C 523.882812 924.5 524.699219 924.066406 525.46875 923.550781 C 526.238281 923.035156 526.953125 922.453125 527.609375 921.796875 C 528.261719 921.140625 528.847656 920.429688 529.363281 919.65625 C 529.878906 918.886719 530.3125 918.074219 530.667969 917.21875 C 531.023438 916.359375 531.292969 915.476562 531.472656 914.570312 C 531.652344 913.660156 531.742188 912.742188 531.742188 911.816406 C 531.742188 910.886719 531.652344 909.96875 531.472656 909.0625 C 531.292969 908.152344 531.023438 907.269531 530.667969 906.414062 C 530.3125 905.558594 529.878906 904.742188 529.363281 903.972656 C 528.847656 903.203125 528.261719 902.488281 527.609375 901.832031 C 526.953125 901.179688 526.238281 900.59375 525.46875 900.078125 C 524.699219 899.5625 523.882812 899.128906 523.027344 898.773438 C 522.171875 898.417969 521.289062 898.152344 520.378906 897.96875 C 519.46875 897.789062 518.550781 897.699219 517.625 897.699219 L 505.628906 897.699219 C 504.703125 897.699219 503.785156 897.789062 502.875 897.96875 C 501.964844 898.152344 501.082031 898.417969 500.226562 898.773438 C 499.367188 899.128906 498.554688 899.5625 497.785156 900.078125 C 497.015625 900.59375 496.300781 901.179688 495.644531 901.832031 C 494.988281 902.488281 494.402344 903.203125 493.890625 903.972656 C 493.375 904.742188 492.9375 905.558594 492.585938 906.414062 C 492.230469 907.269531 491.960938 908.152344 491.78125 909.0625 C 491.601562 909.96875 491.507812 910.886719 491.511719 911.816406 C 491.507812 912.742188 491.601562 913.660156 491.78125 914.570312 C 491.960938 915.476562 492.230469 916.359375 492.585938 917.21875 C 492.9375 918.074219 493.375 918.886719 493.890625 919.65625 C 494.402344 920.429688 494.988281 921.140625 495.644531 921.796875 C 496.300781 922.453125 497.015625 923.035156 497.785156 923.550781 C 498.554688 924.066406 499.367188 924.5 500.226562 924.855469 C 501.082031 925.210938 501.964844 925.480469 502.875 925.660156 C 503.785156 925.839844 504.703125 925.929688 505.628906 925.929688 Z M 517.625 925.929688 " fill-opacity="1" fill-rule="nonzero"/><path fill="#284268" d="M 255.644531 1254.738281 C 263.695312 1262.652344 271.933594 1270.363281 280.359375 1277.871094 C 288.785156 1285.378906 297.394531 1292.679688 306.175781 1299.765625 C 314.960938 1306.855469 323.914062 1313.722656 333.035156 1320.375 C 342.15625 1327.023438 351.433594 1333.445312 360.871094 1339.640625 C 370.304688 1345.835938 379.886719 1351.796875 389.613281 1357.523438 C 399.34375 1363.25 409.203125 1368.738281 419.199219 1373.980469 C 429.195312 1379.226562 439.3125 1384.222656 449.554688 1388.972656 C 459.792969 1393.71875 470.144531 1398.214844 480.605469 1402.457031 C 491.066406 1406.699219 501.625 1410.683594 512.28125 1414.410156 C 522.9375 1418.136719 533.675781 1421.597656 544.503906 1424.796875 C 555.328125 1428 566.222656 1430.933594 577.191406 1433.597656 C 588.164062 1436.265625 599.191406 1438.664062 610.277344 1440.789062 C 621.363281 1442.917969 632.492188 1444.769531 643.671875 1446.351562 C 654.847656 1447.9375 666.058594 1449.242188 677.296875 1450.277344 C 688.539062 1451.3125 699.800781 1452.070312 711.078125 1452.550781 C 722.355469 1453.035156 733.636719 1453.242188 744.925781 1453.171875 C 756.214844 1453.101562 767.496094 1452.757812 778.765625 1452.132812 C 790.039062 1451.511719 801.289062 1450.617188 812.515625 1449.445312 C 823.742188 1448.273438 834.933594 1446.824219 846.089844 1445.105469 C 857.246094 1443.386719 868.355469 1441.394531 879.414062 1439.132812 C 890.472656 1436.867188 901.472656 1434.335938 912.40625 1431.53125 C 923.339844 1428.730469 934.203125 1425.664062 944.988281 1422.332031 C 955.773438 1418.996094 966.46875 1415.402344 977.078125 1411.546875 C 987.6875 1407.6875 998.195312 1403.574219 1008.601562 1399.203125 C 1019.011719 1394.832031 1029.304688 1390.210938 1039.484375 1385.335938 C 1049.667969 1380.460938 1059.722656 1375.339844 1069.652344 1369.972656 C 1079.582031 1364.605469 1089.375 1359 1099.03125 1353.152344 C 1108.6875 1347.308594 1118.195312 1341.230469 1127.554688 1334.917969 C 1136.914062 1328.605469 1146.109375 1322.070312 1155.148438 1315.308594 C 1164.1875 1308.546875 1173.054688 1301.566406 1181.75 1294.371094 C 1190.449219 1287.175781 1198.964844 1279.773438 1207.296875 1272.160156 C 1215.632812 1264.546875 1223.773438 1256.734375 1231.726562 1248.726562 C 1239.679688 1240.714844 1247.429688 1232.511719 1254.980469 1224.125 C 1262.527344 1215.734375 1269.871094 1207.164062 1277 1198.414062 C 1284.128906 1189.664062 1291.042969 1180.746094 1297.738281 1171.660156 C 1304.429688 1162.570312 1310.898438 1153.324219 1317.140625 1143.921875 C 1323.378906 1134.515625 1329.386719 1124.964844 1335.160156 1115.265625 C 1340.933594 1105.570312 1346.46875 1095.734375 1351.757812 1085.765625 C 1357.050781 1075.796875 1362.097656 1065.703125 1366.894531 1055.488281 C 1371.691406 1045.273438 1376.238281 1034.945312 1380.53125 1024.507812 C 1384.820312 1014.070312 1388.855469 1003.53125 1392.632812 992.894531 C 1396.410156 982.261719 1399.921875 971.539062 1403.175781 960.730469 C 1406.425781 949.921875 1409.410156 939.042969 1412.128906 928.089844 C 1414.847656 917.132812 1417.296875 906.121094 1419.476562 895.046875 C 1421.65625 883.972656 1423.5625 872.851562 1425.199219 861.6875 C 1426.832031 850.519531 1428.195312 839.320312 1429.28125 828.085938 C 1430.367188 816.851562 1431.179688 805.597656 1431.714844 794.324219 C 1432.25 783.050781 1432.507812 771.773438 1432.492188 760.484375 C 1432.476562 749.199219 1432.183594 737.921875 1431.613281 726.648438 C 1431.042969 715.378906 1430.199219 704.125 1429.082031 692.894531 C 1427.960938 681.664062 1426.566406 670.46875 1424.898438 659.308594 C 1423.230469 648.144531 1421.289062 637.03125 1419.078125 625.964844 C 1416.867188 614.894531 1414.386719 603.890625 1411.632812 592.945312 C 1408.882812 582 1405.867188 571.125 1402.582031 560.328125 C 1399.296875 549.53125 1395.753906 538.820312 1391.945312 528.195312 C 1388.136719 517.570312 1384.070312 507.042969 1379.75 496.617188 C 1375.425781 486.195312 1370.851562 475.878906 1366.023438 465.679688 C 1361.195312 455.476562 1356.117188 445.398438 1350.796875 435.445312 C 1345.476562 425.492188 1339.914062 415.675781 1334.113281 405.992188 C 1328.308594 396.3125 1322.273438 386.78125 1316.003906 377.394531 C 1309.734375 368.007812 1303.242188 358.78125 1296.519531 349.714844 C 1289.800781 340.644531 1282.859375 331.746094 1275.703125 323.019531 C 1268.546875 314.289062 1261.183594 305.742188 1253.609375 297.375 C 1246.03125 289.007812 1238.257812 280.828125 1230.28125 272.84375 C 1222.347656 264.867188 1214.222656 257.09375 1205.90625 249.515625 C 1197.59375 241.9375 1189.097656 234.566406 1180.425781 227.402344 C 1171.75 220.238281 1162.90625 213.292969 1153.894531 206.558594 C 1144.878906 199.828125 1135.707031 193.320312 1126.375 187.035156 C 1117.046875 180.75 1107.566406 174.695312 1097.941406 168.875 C 1088.3125 163.050781 1078.550781 157.46875 1068.652344 152.121094 C 1058.753906 146.777344 1048.730469 141.675781 1038.582031 136.816406 C 1028.433594 131.960938 1018.175781 127.351562 1007.800781 122.996094 C 997.429688 118.640625 986.957031 114.539062 976.382812 110.691406 C 965.8125 106.84375 955.152344 103.257812 944.402344 99.933594 C 933.65625 96.609375 922.832031 93.546875 911.9375 90.746094 C 901.039062 87.949219 890.078125 85.417969 879.058594 83.15625 C 868.039062 80.890625 856.96875 78.898438 845.851562 77.175781 C 834.734375 75.449219 823.578125 74 812.390625 72.820312 C 801.203125 71.640625 789.992188 70.734375 778.757812 70.101562 C 767.523438 69.46875 756.285156 69.109375 745.03125 69.023438 C 733.78125 68.941406 722.535156 69.128906 711.296875 69.59375 C 700.054688 70.058594 688.832031 70.796875 677.625 71.808594 C 666.421875 72.820312 655.246094 74.101562 644.105469 75.660156 C 632.960938 77.214844 621.863281 79.042969 610.808594 81.140625 C 599.757812 83.238281 588.761719 85.605469 577.824219 88.238281 C 566.882812 90.875 556.015625 93.773438 545.222656 96.9375 C 534.425781 100.101562 523.710938 103.527344 513.082031 107.214844 C 502.453125 110.898438 491.917969 114.84375 481.484375 119.042969 C 471.046875 123.246094 460.71875 127.695312 450.496094 132.402344 C 440.277344 137.105469 430.179688 142.054688 420.203125 147.253906 C 410.222656 152.449219 400.378906 157.886719 390.664062 163.5625 C 380.953125 169.242188 371.382812 175.152344 361.960938 181.296875 C 352.535156 187.4375 343.265625 193.808594 334.152344 200.40625 C 325.039062 207 316.09375 213.816406 307.3125 220.847656 C 298.53125 227.878906 289.925781 235.121094 281.5 242.574219 C 273.070312 250.027344 264.832031 257.679688 256.777344 265.535156 C 236 285.78125 216.5625 307.238281 198.46875 329.914062 C 180.371094 352.585938 163.757812 376.296875 148.625 401.046875 C 148.140625 401.835938 147.734375 402.664062 147.414062 403.535156 C 147.089844 404.402344 146.855469 405.296875 146.710938 406.210938 C 146.5625 407.125 146.507812 408.046875 146.542969 408.972656 C 146.578125 409.902344 146.703125 410.816406 146.917969 411.714844 C 147.132812 412.617188 147.433594 413.492188 147.820312 414.332031 C 148.207031 415.175781 148.671875 415.972656 149.214844 416.722656 C 149.761719 417.476562 150.371094 418.164062 151.050781 418.796875 C 151.730469 419.425781 152.46875 419.984375 153.257812 420.46875 C 154.046875 420.957031 154.878906 421.359375 155.746094 421.683594 C 156.617188 422.003906 157.507812 422.238281 158.425781 422.386719 C 159.339844 422.53125 160.261719 422.585938 161.1875 422.550781 C 162.113281 422.515625 163.027344 422.390625 163.929688 422.175781 C 164.832031 421.960938 165.707031 421.660156 166.546875 421.273438 C 167.390625 420.886719 168.1875 420.421875 168.9375 419.878906 C 169.691406 419.335938 170.382812 418.722656 171.011719 418.042969 C 171.640625 417.363281 172.199219 416.628906 172.6875 415.839844 C 186.484375 393.257812 201.574219 371.578125 217.953125 350.789062 C 234.328125 330.003906 251.878906 310.261719 270.605469 291.558594 C 285.605469 276.5625 301.1875 262.386719 317.347656 249.03125 C 395.355469 239.09375 536.03125 235.425781 587.898438 282.796875 C 589.582031 284.277344 591.179688 285.847656 592.683594 287.511719 C 594.1875 289.175781 595.589844 290.921875 596.894531 292.746094 C 598.195312 294.574219 599.386719 296.46875 600.472656 298.433594 C 601.554688 300.398438 602.519531 302.417969 603.371094 304.496094 C 604.21875 306.570312 604.945312 308.6875 605.550781 310.847656 C 606.152344 313.007812 606.632812 315.195312 606.984375 317.410156 C 607.332031 319.628906 607.554688 321.855469 607.648438 324.097656 C 607.742188 326.335938 607.707031 328.578125 607.539062 330.8125 C 604.625 399.304688 556.429688 406.8125 509.796875 414.078125 C 479.625 418.777344 448.425781 423.636719 443.207031 451.460938 C 437.730469 480.648438 457.082031 502.84375 475.796875 524.316406 C 495.75 547.203125 516.375 570.871094 517.773438 607.167969 C 518.621094 628.96875 505.066406 654.878906 481.546875 676.449219 C 457.429688 698.574219 427.863281 711.753906 407.96875 709.285156 C 392.953125 707.410156 375.210938 703.855469 356.4375 700.09375 C 306.9375 690.175781 250.828125 678.9375 202.976562 688.519531 C 159.132812 697.269531 106.183594 742.328125 76.363281 770.71875 C 76.316406 767.371094 76.242188 764.035156 76.242188 760.683594 C 76.199219 725.105469 78.996094 689.75 84.632812 654.617188 C 90.269531 619.484375 98.675781 585.027344 109.84375 551.246094 C 110.128906 550.363281 110.324219 549.464844 110.429688 548.542969 C 110.535156 547.625 110.550781 546.703125 110.476562 545.78125 C 110.402344 544.859375 110.238281 543.953125 109.984375 543.0625 C 109.730469 542.171875 109.394531 541.3125 108.972656 540.488281 C 108.550781 539.664062 108.050781 538.890625 107.476562 538.164062 C 106.902344 537.4375 106.265625 536.773438 105.5625 536.171875 C 104.855469 535.574219 104.101562 535.046875 103.292969 534.59375 C 102.484375 534.140625 101.640625 533.773438 100.761719 533.484375 C 99.878906 533.199219 98.980469 533 98.0625 532.890625 C 97.140625 532.78125 96.21875 532.761719 95.296875 532.832031 C 94.375 532.902344 93.464844 533.0625 92.574219 533.3125 C 91.683594 533.5625 90.824219 533.894531 90 534.3125 C 89.171875 534.730469 88.394531 535.226562 87.664062 535.796875 C 86.9375 536.367188 86.269531 537.003906 85.667969 537.707031 C 85.0625 538.40625 84.53125 539.160156 84.078125 539.96875 C 83.621094 540.773438 83.246094 541.613281 82.957031 542.496094 C 80.433594 550.132812 78.046875 557.8125 75.789062 565.535156 C 73.535156 573.253906 71.414062 581.015625 69.429688 588.808594 C 67.445312 596.605469 65.59375 604.433594 63.882812 612.292969 C 62.167969 620.152344 60.59375 628.039062 59.15625 635.953125 C 57.71875 643.867188 56.417969 651.804688 55.253906 659.761719 C 54.09375 667.722656 53.070312 675.699219 52.183594 683.695312 C 51.300781 691.691406 50.554688 699.699219 49.949219 707.71875 C 49.34375 715.742188 48.878906 723.769531 48.550781 731.808594 C 48.226562 739.847656 48.039062 747.886719 47.992188 755.929688 C 47.945312 763.972656 48.039062 772.015625 48.273438 780.058594 C 48.507812 788.097656 48.882812 796.132812 49.394531 804.160156 C 49.90625 812.1875 50.5625 820.203125 51.351562 828.207031 C 52.144531 836.214844 53.078125 844.203125 54.148438 852.175781 C 55.21875 860.148438 56.425781 868.097656 57.773438 876.027344 C 59.121094 883.957031 60.605469 891.863281 62.226562 899.742188 C 63.847656 907.621094 65.609375 915.46875 67.503906 923.285156 C 69.398438 931.105469 71.429688 938.886719 73.597656 946.632812 C 75.761719 954.378906 78.0625 962.085938 80.496094 969.753906 C 82.933594 977.421875 85.5 985.042969 88.199219 992.621094 C 90.898438 1000.199219 93.730469 1007.726562 96.691406 1015.207031 C 99.652344 1022.683594 102.746094 1030.109375 105.964844 1037.480469 C 109.183594 1044.855469 112.53125 1052.167969 116.007812 1059.421875 C 119.484375 1066.675781 123.082031 1073.871094 126.808594 1081 C 130.53125 1088.128906 134.382812 1095.191406 138.351562 1102.1875 C 142.324219 1109.183594 146.414062 1116.109375 150.628906 1122.960938 C 154.839844 1129.816406 159.167969 1136.59375 163.617188 1143.296875 C 168.066406 1150 172.628906 1156.625 177.308594 1163.167969 C 181.984375 1169.710938 186.777344 1176.171875 191.679688 1182.550781 C 196.582031 1188.929688 201.597656 1195.21875 206.71875 1201.421875 C 211.839844 1207.625 217.070312 1213.738281 222.40625 1219.757812 C 227.742188 1225.777344 233.179688 1231.707031 238.71875 1237.539062 C 244.261719 1243.371094 249.902344 1249.105469 255.644531 1254.738281 Z M 1375.011719 567.542969 C 1384.46875 598.863281 1391.578125 630.703125 1396.339844 663.066406 C 1401.101562 695.433594 1403.460938 727.972656 1403.425781 760.683594 C 1403.453125 770.453125 1403.265625 780.21875 1402.855469 789.976562 C 1402.449219 799.738281 1401.828125 809.480469 1400.984375 819.214844 C 1400.144531 828.945312 1399.085938 838.65625 1397.816406 848.339844 C 1396.542969 858.023438 1395.054688 867.675781 1393.351562 877.292969 C 1391.648438 886.914062 1389.734375 896.488281 1387.605469 906.023438 C 1385.476562 915.554688 1383.136719 925.039062 1380.585938 934.464844 C 1378.035156 943.894531 1375.273438 953.265625 1372.304688 962.570312 C 1369.339844 971.875 1366.164062 981.113281 1362.785156 990.277344 C 1359.40625 999.445312 1355.824219 1008.527344 1352.042969 1017.535156 C 1348.257812 1026.539062 1344.277344 1035.457031 1340.09375 1044.289062 C 1335.914062 1053.117188 1331.539062 1061.847656 1326.972656 1070.480469 C 1322.402344 1079.117188 1317.644531 1087.644531 1312.695312 1096.066406 C 1307.746094 1104.488281 1302.613281 1112.796875 1297.292969 1120.992188 C 1291.976562 1129.183594 1286.476562 1137.257812 1280.800781 1145.207031 C 1275.121094 1153.15625 1269.269531 1160.972656 1263.242188 1168.664062 C 1257.21875 1176.351562 1251.023438 1183.902344 1244.660156 1191.316406 C 1188.375 1217.925781 1149.234375 1224.71875 1128.371094 1211.421875 C 1102.507812 1194.929688 1103.085938 1144.75 1103.597656 1100.46875 C 1104.070312 1059.746094 1104.480469 1024.574219 1086.445312 1006.484375 C 1070.171875 990.15625 1035.554688 992.910156 995.484375 996.101562 C 964.449219 998.570312 917.5625 1002.292969 908.746094 988.804688 C 904.546875 982.378906 907.957031 967.796875 918.101562 948.773438 C 921.117188 944.441406 940.949219 920.011719 956.941406 900.308594 C 1000.203125 847.011719 1009.367188 835.375 1011.441406 831.007812 C 1022.859375 806.746094 1023.753906 786.75 1014.101562 771.578125 C 994.453125 740.699219 938.332031 740.832031 878.960938 740.957031 C 830.980469 741.074219 771.246094 741.195312 759.742188 719.679688 C 755.035156 710.871094 755.242188 691.699219 782.988281 650.390625 C 863.523438 530.453125 890.613281 535.058594 944.566406 544.238281 C 960.359375 547.175781 976.265625 549.191406 992.289062 550.285156 C 993.214844 553.777344 994.273438 557.226562 995.460938 560.632812 C 996.648438 564.042969 997.960938 567.402344 999.402344 570.710938 C 1000.847656 574.023438 1002.410156 577.273438 1004.097656 580.464844 C 1005.785156 583.65625 1007.59375 586.777344 1009.515625 589.832031 C 1011.441406 592.886719 1013.480469 595.863281 1015.628906 598.765625 C 1017.777344 601.664062 1020.035156 604.480469 1022.398438 607.210938 C 1024.761719 609.941406 1027.222656 612.578125 1029.785156 615.121094 C 1032.347656 617.664062 1035.003906 620.105469 1037.75 622.449219 C 1040.5 624.792969 1043.332031 627.027344 1046.25 629.15625 C 1049.164062 631.28125 1052.15625 633.296875 1055.226562 635.199219 C 1058.296875 637.101562 1061.433594 638.882812 1064.636719 640.546875 C 1067.84375 642.210938 1071.105469 643.753906 1074.425781 645.167969 C 1077.746094 646.585938 1081.117188 647.875 1084.535156 649.039062 C 1087.953125 650.199219 1091.410156 651.230469 1094.90625 652.132812 C 1098.40625 653.03125 1101.929688 653.800781 1105.484375 654.433594 C 1109.039062 655.066406 1112.613281 655.566406 1116.207031 655.929688 L 1116.207031 734.996094 L 1062.316406 683.191406 C 1061.652344 682.542969 1060.925781 681.960938 1060.144531 681.457031 C 1059.363281 680.949219 1058.539062 680.523438 1057.675781 680.175781 C 1056.808594 679.832031 1055.917969 679.578125 1055.003906 679.40625 C 1054.085938 679.238281 1053.164062 679.164062 1052.230469 679.175781 C 1051.300781 679.191406 1050.378906 679.296875 1049.46875 679.496094 C 1048.558594 679.691406 1047.675781 679.976562 1046.820312 680.347656 C 1045.964844 680.71875 1045.15625 681.171875 1044.390625 681.703125 C 1043.625 682.234375 1042.921875 682.835938 1042.277344 683.507812 C 1041.628906 684.179688 1041.054688 684.90625 1040.554688 685.691406 C 1040.054688 686.476562 1039.632812 687.304688 1039.296875 688.171875 C 1038.957031 689.039062 1038.707031 689.933594 1038.546875 690.851562 C 1038.386719 691.765625 1038.316406 692.691406 1038.335938 693.621094 C 1038.359375 694.554688 1038.472656 695.472656 1038.675781 696.382812 C 1038.878906 697.292969 1039.171875 698.171875 1039.550781 699.023438 C 1039.929688 699.875 1040.386719 700.679688 1040.925781 701.441406 C 1041.460938 702.199219 1042.070312 702.902344 1042.746094 703.542969 L 1116.207031 774.164062 L 1116.207031 863.878906 C 1116.207031 864.804688 1116.296875 865.722656 1116.476562 866.632812 C 1116.660156 867.539062 1116.925781 868.421875 1117.28125 869.28125 C 1117.636719 870.136719 1118.070312 870.949219 1118.585938 871.71875 C 1119.101562 872.492188 1119.6875 873.203125 1120.339844 873.859375 C 1120.996094 874.515625 1121.710938 875.101562 1122.480469 875.613281 C 1123.25 876.128906 1124.066406 876.5625 1124.921875 876.917969 C 1125.777344 877.273438 1126.660156 877.542969 1127.570312 877.722656 C 1128.480469 877.902344 1129.398438 877.992188 1130.324219 877.992188 C 1131.253906 877.992188 1132.171875 877.902344 1133.078125 877.722656 C 1133.988281 877.542969 1134.871094 877.273438 1135.726562 876.917969 C 1136.585938 876.5625 1137.398438 876.128906 1138.167969 875.613281 C 1138.941406 875.101562 1139.652344 874.515625 1140.308594 873.859375 C 1140.964844 873.203125 1141.550781 872.492188 1142.066406 871.71875 C 1142.578125 870.949219 1143.015625 870.136719 1143.371094 869.28125 C 1143.722656 868.421875 1143.992188 867.539062 1144.171875 866.632812 C 1144.355469 865.722656 1144.445312 864.804688 1144.445312 863.878906 L 1144.445312 832.773438 L 1216.839844 725.1875 C 1217.359375 724.417969 1217.796875 723.605469 1218.152344 722.75 C 1218.511719 721.894531 1218.78125 721.011719 1218.964844 720.105469 C 1219.148438 719.195312 1219.242188 718.277344 1219.246094 717.351562 C 1219.246094 716.421875 1219.160156 715.503906 1218.980469 714.59375 C 1218.804688 713.683594 1218.539062 712.800781 1218.1875 711.945312 C 1217.832031 711.085938 1217.402344 710.269531 1216.886719 709.5 C 1216.375 708.726562 1215.792969 708.011719 1215.136719 707.355469 C 1214.484375 706.695312 1213.773438 706.109375 1213.003906 705.589844 C 1212.234375 705.074219 1211.421875 704.636719 1210.566406 704.277344 C 1209.710938 703.921875 1208.828125 703.652344 1207.917969 703.46875 C 1207.011719 703.285156 1206.089844 703.191406 1205.164062 703.1875 C 1204.238281 703.183594 1203.320312 703.273438 1202.410156 703.453125 C 1201.5 703.628906 1200.613281 703.894531 1199.757812 704.246094 C 1198.898438 704.597656 1198.082031 705.03125 1197.3125 705.542969 C 1196.539062 706.058594 1195.824219 706.640625 1195.164062 707.292969 C 1194.507812 707.949219 1193.921875 708.660156 1193.402344 709.429688 L 1144.421875 782.199219 L 1144.421875 655.945312 C 1146.984375 655.691406 1149.535156 655.367188 1152.082031 654.976562 C 1154.625 654.582031 1157.15625 654.125 1159.675781 653.59375 C 1162.195312 653.066406 1164.699219 652.46875 1167.1875 651.804688 C 1169.675781 651.136719 1172.140625 650.40625 1174.589844 649.609375 C 1177.039062 648.808594 1179.460938 647.945312 1181.863281 647.015625 C 1184.261719 646.089844 1186.636719 645.09375 1188.984375 644.035156 C 1191.332031 642.980469 1193.648438 641.859375 1195.933594 640.675781 C 1198.222656 639.492188 1200.476562 638.25 1202.695312 636.945312 C 1204.914062 635.640625 1207.09375 634.277344 1209.242188 632.851562 C 1211.386719 631.429688 1213.492188 629.949219 1215.558594 628.414062 C 1217.621094 626.875 1219.644531 625.285156 1221.625 623.636719 C 1223.601562 621.992188 1225.535156 620.292969 1227.421875 618.542969 C 1229.3125 616.792969 1231.148438 614.992188 1232.9375 613.140625 C 1234.730469 611.292969 1236.46875 609.394531 1238.15625 607.449219 C 1239.84375 605.507812 1241.476562 603.515625 1243.054688 601.484375 C 1244.632812 599.453125 1246.15625 597.378906 1247.625 595.265625 C 1249.09375 593.148438 1250.5 590.996094 1251.851562 588.804688 C 1253.203125 586.613281 1254.492188 584.386719 1255.722656 582.125 C 1256.953125 579.863281 1258.125 577.574219 1259.230469 575.25 C 1260.335938 572.925781 1261.378906 570.570312 1262.359375 568.191406 C 1263.335938 565.808594 1264.25 563.40625 1265.097656 560.976562 C 1265.949219 558.546875 1266.730469 556.09375 1267.445312 553.621094 C 1268.164062 551.148438 1268.8125 548.660156 1269.394531 546.152344 C 1269.976562 543.644531 1270.488281 541.121094 1270.933594 538.585938 C 1271.378906 536.050781 1271.753906 533.507812 1272.0625 530.953125 C 1272.367188 528.394531 1272.605469 525.832031 1272.777344 523.265625 C 1272.945312 520.695312 1273.042969 518.125 1273.074219 515.550781 C 1273.101562 512.976562 1273.0625 510.40625 1272.953125 507.835938 C 1272.84375 505.261719 1272.664062 502.695312 1272.414062 500.132812 C 1272.167969 497.570312 1271.847656 495.019531 1271.460938 492.472656 C 1271.074219 489.929688 1270.621094 487.394531 1270.097656 484.875 C 1269.574219 482.355469 1268.980469 479.851562 1268.320312 477.363281 C 1274.601562 480.722656 1280.527344 484.625 1286.09375 489.066406 C 1350.800781 540.347656 1367.804688 557.597656 1375.011719 567.542969 Z M 1130.304688 514.730469 C 1129.375 514.730469 1128.457031 514.820312 1127.546875 515.003906 C 1126.640625 515.183594 1125.757812 515.449219 1124.898438 515.804688 C 1124.042969 516.160156 1123.230469 516.59375 1122.457031 517.109375 C 1121.6875 517.625 1120.976562 518.210938 1120.320312 518.867188 C 1119.664062 519.519531 1119.078125 520.234375 1118.5625 521.003906 C 1118.046875 521.777344 1117.613281 522.589844 1117.257812 523.445312 C 1116.902344 524.300781 1116.636719 525.183594 1116.457031 526.09375 C 1116.273438 527.003906 1116.183594 527.921875 1116.183594 528.847656 L 1116.183594 627.503906 C 1113.800781 627.210938 1111.429688 626.839844 1109.070312 626.394531 C 1106.710938 625.949219 1104.367188 625.429688 1102.039062 624.835938 C 1099.710938 624.246094 1097.40625 623.582031 1095.121094 622.84375 C 1092.835938 622.105469 1090.574219 621.296875 1088.339844 620.417969 C 1086.105469 619.539062 1083.902344 618.589844 1081.726562 617.570312 C 1079.550781 616.550781 1077.410156 615.46875 1075.304688 614.3125 C 1073.199219 613.160156 1071.128906 611.945312 1069.101562 610.660156 C 1067.070312 609.378906 1065.082031 608.03125 1063.136719 606.625 C 1061.191406 605.21875 1059.292969 603.75 1057.441406 602.222656 C 1055.589844 600.695312 1053.785156 599.109375 1052.03125 597.46875 C 1050.277344 595.828125 1048.578125 594.136719 1046.933594 592.386719 C 1045.285156 590.640625 1043.695312 588.84375 1042.160156 586.996094 C 1040.628906 585.148438 1039.152344 583.253906 1037.738281 581.3125 C 1036.324219 579.375 1034.972656 577.390625 1033.683594 575.367188 C 1032.394531 573.339844 1031.167969 571.277344 1030.007812 569.175781 C 1028.847656 567.074219 1027.757812 564.9375 1026.730469 562.765625 C 1025.703125 560.59375 1024.75 558.394531 1023.863281 556.160156 C 1022.976562 553.929688 1022.160156 551.675781 1021.414062 549.390625 C 1020.667969 547.109375 1019.996094 544.804688 1019.394531 542.480469 C 1018.796875 540.15625 1018.269531 537.816406 1017.816406 535.457031 C 1017.363281 533.101562 1016.984375 530.730469 1016.679688 528.347656 C 1016.378906 525.96875 1016.148438 523.578125 1015.996094 521.183594 C 1015.84375 518.785156 1015.765625 516.386719 1015.761719 513.988281 C 1015.757812 511.585938 1015.832031 509.1875 1015.980469 506.792969 C 1016.128906 504.394531 1016.351562 502.003906 1016.648438 499.625 C 1016.949219 497.242188 1017.320312 494.871094 1017.769531 492.511719 C 1018.21875 490.152344 1018.738281 487.8125 1019.332031 485.484375 C 1019.929688 483.160156 1020.597656 480.855469 1021.335938 478.570312 C 1022.078125 476.285156 1022.886719 474.027344 1023.769531 471.792969 C 1024.652344 469.5625 1025.605469 467.359375 1026.625 465.183594 C 1027.644531 463.011719 1028.734375 460.871094 1029.886719 458.769531 C 1031.042969 456.664062 1032.265625 454.597656 1033.550781 452.570312 C 1034.835938 450.542969 1036.183594 448.554688 1037.59375 446.613281 C 1039.003906 444.667969 1040.472656 442.773438 1042.003906 440.921875 C 1043.53125 439.070312 1045.117188 437.269531 1046.761719 435.519531 C 1048.40625 433.765625 1050.101562 432.070312 1051.851562 430.425781 C 1053.601562 428.78125 1055.398438 427.191406 1057.25 425.660156 C 1059.097656 424.128906 1060.996094 422.660156 1062.9375 421.246094 C 1064.878906 419.835938 1066.863281 418.484375 1068.890625 417.199219 C 1070.917969 415.910156 1072.984375 414.6875 1075.085938 413.53125 C 1077.191406 412.375 1079.328125 411.28125 1081.503906 410.261719 C 1083.675781 409.238281 1085.878906 408.285156 1088.109375 407.398438 C 1090.34375 406.515625 1092.601562 405.703125 1094.882812 404.960938 C 1097.167969 404.214844 1099.472656 403.546875 1101.796875 402.949219 C 1104.125 402.351562 1106.464844 401.828125 1108.824219 401.378906 C 1111.183594 400.925781 1113.554688 400.550781 1115.9375 400.25 C 1118.320312 399.949219 1120.710938 399.722656 1123.105469 399.574219 C 1125.503906 399.421875 1127.902344 399.347656 1130.304688 399.347656 C 1132.703125 399.347656 1135.101562 399.421875 1137.5 399.574219 C 1139.898438 399.722656 1142.285156 399.949219 1144.667969 400.25 C 1147.050781 400.550781 1149.421875 400.925781 1151.78125 401.378906 C 1154.140625 401.828125 1156.480469 402.351562 1158.808594 402.949219 C 1161.132812 403.546875 1163.4375 404.214844 1165.722656 404.960938 C 1168.003906 405.703125 1170.261719 406.515625 1172.496094 407.398438 C 1174.730469 408.285156 1176.929688 409.238281 1179.105469 410.261719 C 1181.277344 411.28125 1183.414062 412.375 1185.519531 413.53125 C 1187.621094 414.6875 1189.6875 415.910156 1191.714844 417.199219 C 1193.742188 418.484375 1195.726562 419.835938 1197.667969 421.246094 C 1199.609375 422.660156 1201.507812 424.128906 1203.355469 425.660156 C 1205.207031 427.191406 1207.003906 428.78125 1208.753906 430.425781 C 1210.503906 432.070312 1212.203125 433.765625 1213.84375 435.519531 C 1215.488281 437.269531 1217.074219 439.070312 1218.601562 440.921875 C 1220.132812 442.773438 1221.601562 444.667969 1223.011719 446.613281 C 1224.421875 448.554688 1225.769531 450.542969 1227.054688 452.570312 C 1228.339844 454.597656 1229.5625 456.664062 1230.71875 458.769531 C 1231.871094 460.871094 1232.960938 463.011719 1233.980469 465.183594 C 1235.003906 467.359375 1235.953125 469.5625 1236.835938 471.792969 C 1237.71875 474.027344 1238.527344 476.285156 1239.269531 478.570312 C 1240.007812 480.855469 1240.675781 483.160156 1241.273438 485.484375 C 1241.867188 487.8125 1242.386719 490.152344 1242.835938 492.511719 C 1243.285156 494.871094 1243.65625 497.242188 1243.957031 499.625 C 1244.253906 502.003906 1244.476562 504.394531 1244.625 506.792969 C 1244.773438 509.1875 1244.847656 511.585938 1244.84375 513.988281 C 1244.84375 516.386719 1244.765625 518.785156 1244.609375 521.183594 C 1244.457031 523.578125 1244.226562 525.96875 1243.925781 528.347656 C 1243.621094 530.730469 1243.242188 533.101562 1242.789062 535.457031 C 1242.335938 537.816406 1241.808594 540.15625 1241.210938 542.480469 C 1240.609375 544.804688 1239.9375 547.109375 1239.191406 549.390625 C 1238.445312 551.675781 1237.632812 553.929688 1236.742188 556.160156 C 1235.855469 558.394531 1234.902344 560.59375 1233.875 562.765625 C 1232.851562 564.9375 1231.757812 567.074219 1230.597656 569.175781 C 1229.4375 571.277344 1228.210938 573.339844 1226.921875 575.367188 C 1225.632812 577.390625 1224.28125 579.375 1222.867188 581.3125 C 1221.453125 583.253906 1219.976562 585.148438 1218.445312 586.996094 C 1216.910156 588.84375 1215.320312 590.640625 1213.675781 592.386719 C 1212.027344 594.136719 1210.328125 595.828125 1208.574219 597.46875 C 1206.820312 599.109375 1205.019531 600.695312 1203.164062 602.222656 C 1201.3125 603.75 1199.414062 605.21875 1197.46875 606.625 C 1195.523438 608.03125 1193.535156 609.378906 1191.503906 610.660156 C 1189.476562 611.945312 1187.40625 613.160156 1185.300781 614.3125 C 1183.195312 615.46875 1181.054688 616.550781 1178.878906 617.570312 C 1176.703125 618.589844 1174.5 619.539062 1172.265625 620.417969 C 1170.03125 621.296875 1167.769531 622.105469 1165.484375 622.84375 C 1163.199219 623.582031 1160.894531 624.246094 1158.566406 624.835938 C 1156.238281 625.429688 1153.894531 625.949219 1151.535156 626.394531 C 1149.175781 626.839844 1146.804688 627.210938 1144.421875 627.503906 L 1144.421875 528.847656 C 1144.421875 527.921875 1144.332031 527.003906 1144.152344 526.09375 C 1143.96875 525.183594 1143.703125 524.300781 1143.347656 523.445312 C 1142.992188 522.589844 1142.558594 521.773438 1142.042969 521.003906 C 1141.527344 520.234375 1140.941406 519.519531 1140.285156 518.867188 C 1139.632812 518.210938 1138.917969 517.625 1138.148438 517.109375 C 1137.375 516.59375 1136.5625 516.160156 1135.707031 515.804688 C 1134.847656 515.449219 1133.964844 515.183594 1133.058594 515.003906 C 1132.148438 514.820312 1131.230469 514.730469 1130.304688 514.730469 Z M 121.539062 768.058594 C 156.367188 738.539062 186.441406 720.609375 208.511719 716.191406 C 250.835938 707.722656 303.988281 718.378906 350.886719 727.765625 C 370.1875 731.632812 388.421875 735.285156 404.460938 737.289062 C 432.519531 740.792969 470.289062 725.082031 500.636719 697.242188 C 530.628906 669.730469 547.160156 636.5 545.988281 606.074219 C 544.210938 559.824219 518.078125 529.847656 497.082031 505.757812 C 479.050781 485.078125 468.144531 471.640625 470.957031 456.65625 C 472.496094 448.449219 493.667969 445.152344 514.140625 441.960938 C 561.015625 434.660156 631.851562 423.609375 635.75 332.003906 C 635.964844 328.738281 635.996094 325.472656 635.839844 322.207031 C 635.683594 318.9375 635.34375 315.6875 634.816406 312.460938 C 634.289062 309.230469 633.578125 306.042969 632.6875 302.894531 C 631.796875 299.746094 630.726562 296.65625 629.484375 293.632812 C 628.238281 290.605469 626.828125 287.660156 625.246094 284.796875 C 623.664062 281.929688 621.925781 279.164062 620.03125 276.496094 C 618.132812 273.832031 616.09375 271.28125 613.902344 268.847656 C 611.714844 266.414062 609.398438 264.113281 606.945312 261.945312 C 552.335938 212.074219 429.839844 212.03125 359.648438 216.726562 C 369.800781 209.65625 380.144531 202.871094 390.671875 196.375 C 401.203125 189.882812 411.910156 183.6875 422.785156 177.789062 C 433.660156 171.894531 444.695312 166.304688 455.882812 161.023438 C 467.074219 155.742188 478.402344 150.777344 489.867188 146.128906 C 501.332031 141.480469 512.921875 137.15625 524.628906 133.15625 C 536.335938 129.15625 548.148438 125.484375 560.058594 122.140625 C 571.972656 118.800781 583.96875 115.792969 596.050781 113.121094 C 608.132812 110.449219 620.277344 108.117188 632.492188 106.125 C 644.703125 104.128906 656.960938 102.476562 669.261719 101.167969 C 681.566406 99.859375 693.898438 98.894531 706.253906 98.273438 C 718.613281 97.652344 730.976562 97.378906 743.351562 97.449219 C 755.722656 97.515625 768.085938 97.933594 780.433594 98.691406 C 792.785156 99.453125 805.101562 100.554688 817.390625 102.003906 C 829.679688 103.453125 841.917969 105.242188 854.105469 107.371094 C 866.292969 109.503906 878.414062 111.972656 890.460938 114.78125 C 902.511719 117.589844 914.476562 120.730469 926.347656 124.207031 C 938.222656 127.683594 949.992188 131.488281 961.65625 135.621094 C 973.316406 139.753906 984.855469 144.207031 996.269531 148.984375 C 1007.679688 153.761719 1018.953125 158.855469 1030.082031 164.261719 C 1041.210938 169.667969 1052.179688 175.378906 1062.988281 181.398438 C 1073.796875 187.417969 1084.429688 193.734375 1094.886719 200.347656 C 1105.34375 206.960938 1115.609375 213.859375 1125.679688 221.046875 C 1135.75 228.230469 1145.613281 235.691406 1155.269531 243.429688 C 1164.925781 251.164062 1174.355469 259.164062 1183.5625 267.429688 C 1192.769531 275.691406 1201.742188 284.207031 1210.472656 292.96875 C 1219.203125 301.734375 1227.683594 310.734375 1235.914062 319.972656 C 1244.144531 329.210938 1252.109375 338.671875 1259.808594 348.351562 C 1267.511719 358.035156 1274.933594 367.925781 1282.082031 378.023438 C 1289.230469 388.117188 1296.09375 398.40625 1302.667969 408.886719 C 1309.242188 419.367188 1315.515625 430.023438 1321.496094 440.851562 C 1327.472656 451.683594 1333.144531 462.671875 1338.507812 473.820312 C 1343.875 484.96875 1348.921875 496.253906 1353.65625 507.683594 C 1340.882812 496.839844 1324.601562 483.550781 1303.640625 466.933594 C 1296.324219 460.910156 1288.429688 455.777344 1279.960938 451.535156 C 1271.488281 447.289062 1262.652344 444.039062 1253.449219 441.785156 C 1251.484375 438.429688 1249.390625 435.160156 1247.160156 431.980469 C 1244.929688 428.796875 1242.574219 425.710938 1240.09375 422.71875 C 1237.609375 419.730469 1235.011719 416.847656 1232.292969 414.070312 C 1229.578125 411.289062 1226.75 408.628906 1223.816406 406.082031 C 1220.878906 403.535156 1217.847656 401.113281 1214.714844 398.8125 C 1211.582031 396.511719 1208.359375 394.34375 1205.046875 392.308594 C 1201.738281 390.273438 1198.351562 388.375 1194.886719 386.617188 C 1191.421875 384.855469 1187.890625 383.242188 1184.292969 381.769531 C 1180.695312 380.300781 1177.042969 378.976562 1173.339844 377.804688 C 1169.632812 376.632812 1165.886719 375.613281 1162.097656 374.746094 C 1158.308594 373.878906 1154.492188 373.167969 1150.644531 372.613281 C 1146.800781 372.058594 1142.9375 371.660156 1139.058594 371.417969 C 1135.179688 371.179688 1131.296875 371.097656 1127.410156 371.175781 C 1123.523438 371.253906 1119.648438 371.488281 1115.78125 371.882812 C 1111.917969 372.277344 1108.070312 372.828125 1104.25 373.535156 C 1100.429688 374.246094 1096.644531 375.105469 1092.890625 376.125 C 1089.140625 377.140625 1085.4375 378.308594 1081.78125 379.628906 C 1078.128906 380.949219 1074.53125 382.414062 1070.996094 384.027344 C 1067.460938 385.640625 1063.996094 387.394531 1060.605469 389.292969 C 1057.210938 391.1875 1053.902344 393.21875 1050.675781 395.386719 C 1047.449219 397.550781 1044.316406 399.847656 1041.277344 402.269531 C 1038.238281 404.691406 1035.304688 407.234375 1032.472656 409.894531 C 1029.644531 412.554688 1026.925781 415.328125 1024.320312 418.210938 C 1021.714844 421.097656 1019.234375 424.082031 1016.871094 427.167969 C 1014.511719 430.253906 1012.28125 433.433594 1010.179688 436.703125 C 1008.078125 439.96875 1006.113281 443.320312 1004.285156 446.75 C 1002.460938 450.179688 1000.773438 453.675781 999.234375 457.242188 C 997.691406 460.808594 996.296875 464.433594 995.050781 468.113281 C 993.808594 471.792969 992.714844 475.519531 991.773438 479.289062 C 990.832031 483.058594 990.046875 486.859375 989.414062 490.695312 C 988.785156 494.53125 988.3125 498.382812 987.996094 502.253906 C 987.679688 506.128906 987.523438 510.007812 987.523438 513.894531 C 987.523438 516.511719 987.613281 519.105469 987.753906 521.6875 C 973.53125 520.527344 960.839844 518.378906 949.292969 516.414062 C 884.207031 505.335938 846.226562 505.566406 759.535156 634.652344 C 730.167969 678.363281 722.332031 709.613281 734.832031 732.992188 C 754.316406 769.464844 814.898438 769.320312 879.011719 769.191406 C 923.511719 769.078125 978.976562 768.96875 990.269531 786.738281 C 995.3125 794.65625 990.871094 808.25 986.144531 818.433594 C 982.207031 824.394531 954.988281 857.921875 935.035156 882.519531 C 901.40625 923.949219 895.191406 931.792969 893.472656 934.992188 C 877.207031 965.304688 874.476562 987.957031 885.128906 1004.25 C 903.117188 1031.769531 951.226562 1027.945312 997.742188 1024.242188 C 1022.308594 1022.292969 1059.410156 1019.339844 1066.464844 1026.414062 C 1076.125 1036.109375 1075.730469 1070.128906 1075.382812 1100.148438 C 1074.785156 1151.777344 1074.105469 1210.296875 1113.222656 1235.226562 C 1116.335938 1237.109375 1119.570312 1238.761719 1122.925781 1240.179688 C 1126.277344 1241.59375 1129.71875 1242.765625 1133.238281 1243.6875 C 1136.761719 1244.609375 1140.332031 1245.273438 1143.949219 1245.679688 C 1147.566406 1246.085938 1151.195312 1246.230469 1154.835938 1246.113281 C 1170.113281 1245.804688 1185.0625 1243.429688 1199.683594 1238.992188 C 1194.042969 1244.414062 1188.308594 1249.734375 1182.476562 1254.953125 C 1176.648438 1260.171875 1170.730469 1265.285156 1164.71875 1270.292969 C 1158.707031 1275.300781 1152.613281 1280.203125 1146.429688 1284.996094 C 1140.246094 1289.789062 1133.976562 1294.472656 1127.628906 1299.046875 C 1121.277344 1303.617188 1114.851562 1308.074219 1108.34375 1312.421875 C 1101.835938 1316.765625 1095.253906 1320.992188 1088.597656 1325.105469 C 1081.941406 1329.21875 1075.214844 1333.210938 1068.417969 1337.082031 C 1061.617188 1340.957031 1054.753906 1344.710938 1047.824219 1348.339844 C 1040.894531 1351.972656 1033.898438 1355.480469 1026.84375 1358.863281 C 1019.789062 1362.246094 1012.679688 1365.503906 1005.507812 1368.636719 C 998.335938 1371.769531 991.113281 1374.773438 983.839844 1377.652344 C 976.5625 1380.527344 969.238281 1383.277344 961.863281 1385.894531 C 954.488281 1388.511719 947.070312 1390.996094 939.609375 1393.351562 C 932.148438 1395.707031 924.648438 1397.929688 917.109375 1400.019531 C 909.566406 1402.113281 901.992188 1404.066406 894.382812 1405.890625 C 886.773438 1407.710938 879.132812 1409.398438 871.464844 1410.953125 C 863.796875 1412.503906 856.101562 1413.917969 848.382812 1415.199219 C 840.664062 1416.480469 832.921875 1417.621094 825.164062 1418.628906 C 817.402344 1419.636719 809.628906 1420.503906 801.839844 1421.234375 C 794.046875 1421.964844 786.246094 1422.558594 778.4375 1423.015625 C 770.625 1423.46875 762.808594 1423.789062 754.984375 1423.964844 C 747.164062 1424.144531 739.339844 1424.1875 731.515625 1424.089844 C 723.691406 1423.992188 715.871094 1423.753906 708.054688 1423.378906 C 700.238281 1423.003906 692.433594 1422.492188 684.636719 1421.84375 C 676.835938 1421.191406 669.054688 1420.40625 661.285156 1419.480469 C 653.515625 1418.554688 645.761719 1417.492188 638.03125 1416.289062 C 630.300781 1415.089844 622.589844 1413.753906 614.90625 1412.28125 C 607.222656 1410.808594 599.566406 1409.203125 591.9375 1407.457031 C 584.308594 1405.714844 576.714844 1403.835938 569.152344 1401.824219 C 561.589844 1399.8125 554.066406 1397.667969 546.582031 1395.390625 C 539.097656 1393.113281 531.652344 1390.703125 524.253906 1388.164062 C 516.851562 1385.621094 509.5 1382.949219 502.191406 1380.148438 C 494.886719 1377.347656 487.632812 1374.417969 480.429688 1371.359375 C 473.230469 1368.304688 466.082031 1365.121094 458.992188 1361.808594 C 451.902344 1358.5 444.875 1355.0625 437.90625 1351.503906 C 430.9375 1347.945312 424.035156 1344.265625 417.199219 1340.460938 C 410.359375 1336.65625 403.59375 1332.734375 396.894531 1328.691406 C 390.195312 1324.648438 383.570312 1320.492188 377.015625 1316.214844 C 370.464844 1311.9375 363.992188 1307.546875 357.59375 1303.039062 C 351.199219 1298.535156 344.882812 1293.914062 338.652344 1289.1875 C 332.417969 1284.457031 326.269531 1279.621094 320.207031 1274.671875 C 314.144531 1269.726562 308.171875 1264.675781 302.289062 1259.515625 C 296.40625 1254.359375 290.617188 1249.097656 284.921875 1243.734375 C 279.222656 1238.375 273.625 1232.910156 268.121094 1227.351562 C 262.617188 1221.789062 257.210938 1216.132812 251.910156 1210.382812 C 246.605469 1204.632812 241.40625 1198.789062 236.308594 1192.851562 C 231.210938 1186.914062 226.21875 1180.890625 221.335938 1174.78125 C 216.453125 1168.667969 211.679688 1162.472656 207.015625 1156.191406 C 202.351562 1149.910156 197.796875 1143.546875 193.359375 1137.105469 C 188.917969 1130.664062 184.59375 1124.144531 180.386719 1117.550781 C 176.175781 1110.957031 172.085938 1104.289062 168.113281 1097.546875 C 164.140625 1090.808594 160.289062 1084 156.558594 1077.125 C 152.824219 1070.25 149.214844 1063.308594 145.730469 1056.304688 C 142.242188 1049.300781 138.882812 1042.238281 135.644531 1035.117188 C 132.40625 1027.996094 129.296875 1020.816406 126.316406 1013.585938 C 123.332031 1006.351562 120.480469 999.070312 117.753906 991.738281 C 115.03125 984.402344 112.433594 977.023438 109.972656 969.597656 C 107.507812 962.175781 105.175781 954.707031 102.976562 947.199219 C 100.777344 939.691406 98.710938 932.148438 96.777344 924.570312 C 94.84375 916.988281 93.046875 909.375 91.382812 901.730469 C 89.71875 894.085938 88.191406 886.417969 86.800781 878.71875 C 85.410156 871.019531 84.152344 863.300781 83.035156 855.558594 C 81.914062 847.816406 80.933594 840.054688 80.089844 832.277344 C 79.246094 824.5 78.539062 816.710938 77.96875 808.90625 C 85.246094 801.378906 101.519531 785.023438 121.539062 768.058594 Z M 121.539062 768.058594 " fill-opacity="1" fill-rule="nonzero"/></svg>